<?xml version="1.0" encoding="UTF-8" standalone="no"?>
<svg
   width="1000"
   height="900"
   viewBox="0 0 1000 900"
   fill="none"
   version="1.1"
   id="svg31"
   sodipodi:docname="oc-growing.svg"
   inkscape:version="1.3.2 (091e20e, 2023-11-25, custom)"
   xmlns:inkscape="http://www.inkscape.org/namespaces/inkscape"
   xmlns:sodipodi="http://sodipodi.sourceforge.net/DTD/sodipodi-0.dtd"
   xmlns="http://www.w3.org/2000/svg"
   xmlns:svg="http://www.w3.org/2000/svg">
  <defs
     id="defs31" />
  <sodipodi:namedview
     id="namedview31"
     pagecolor="#ffffff"
     bordercolor="#666666"
     borderopacity="1.0"
     inkscape:showpageshadow="2"
     inkscape:pageopacity="0.0"
     inkscape:pagecheckerboard="0"
     inkscape:deskcolor="#d1d1d1"
     inkscape:zoom="0.71829265"
     inkscape:cx="449.67744"
     inkscape:cy="439.23601"
     inkscape:window-width="1920"
     inkscape:window-height="1137"
     inkscape:window-x="-8"
     inkscape:window-y="-8"
     inkscape:window-maximized="1"
     inkscape:current-layer="svg31" />
  <g
     id="g31"
     transform="translate(18.5,7.75)">
    <path
       d="m 586,135.833 c 6.26,7.849 16.634,28.797 8.049,45.164 M 621.645,203 c 2.172,-4.246 6.516,-13.665 6.516,-17.371 0,-4.632 48.293,-1.93 55.575,-53.27 13.492,0 20.697,-11.195 10.349,-15.827 C 683.046,110.973 681.82,100.705 683.736,94.5289 686.803,86.4225 686.036,76 684.886,76"
       stroke="#21325b"
       stroke-width="5"
       stroke-linecap="round"
       id="path1" />
    <ellipse
       cx="675"
       cy="104.5"
       rx="2"
       ry="3.5"
       fill="#21325b"
       id="ellipse1" />
    <path
       d="m 664,97 c 2.167,-2.0791 7.8,-5.1458 13,-0.7797"
       stroke="#21325b"
       stroke-width="5"
       stroke-linecap="round"
       id="path2" />
    <ellipse
       cx="648.5"
       cy="110"
       rx="2.5"
       ry="3"
       fill="#21325b"
       id="ellipse2" />
    <ellipse
       cx="638.5"
       cy="127"
       rx="2.5"
       ry="3"
       fill="#21325b"
       id="ellipse3" />
    <ellipse
       cx="653"
       cy="121.5"
       rx="3"
       ry="2.5"
       fill="#21325b"
       id="ellipse4" />
    <path
       d="m 658,135 c 1,4.333 4.8,13 12,13"
       stroke="#21325b"
       stroke-width="5"
       stroke-linecap="round"
       id="path4" />
    <path
       d="m 657.781,135 c -2.839,7.981 -4.369,21.823 12.219,13.345"
       stroke="#21325b"
       stroke-width="5"
       stroke-linecap="round"
       id="path5" />
    <path
       d="m 617.953,120.184 c -7.694,3.44 -11.413,-4.822 -12.31,-9.383 -2.437,-8.47 -4.001,-25.4883 9.233,-25.801 2.949,0.1303 8.694,3.6747 8.078,16.81"
       stroke="#21325b"
       stroke-width="5"
       stroke-linecap="round"
       id="path6" />
    <path
       d="m 614.605,100 c -0.798,2.087 -1.436,6.809 2.395,9"
       stroke="#21325b"
       stroke-width="5"
       stroke-linecap="round"
       id="path7" />
    <path
       d="m 605.988,111.458 c -1.855,17.028 -15.454,24.123 -22.022,25.542 -6.568,-7.869 -18.235,-32.199 -12.363,-66.565 7.341,-42.9576 34.385,-56.8898 84.61,-52.6327 40.18,3.4056 62.588,-10.44919 68.77,-17.8023 0.773,41.7966 -24.726,68.5 -38.249,75.4661 -10.817,5.5729 -26.4,-7.7401 -32.839,-15.0932 -2.189,6.5791 -8.036,19.9695 -13.909,20.8983 -5.872,0.9288 -8.113,12.5132 -8.499,18.1893 -3.4,8.6685 -6.311,5.9345 -7.341,3.4835 -3.091,-16.7191 -9.53,-18.8348 -12.363,-17.8028 -11.127,2.1673 -8.5,18.4478 -5.795,26.3168 z"
       fill="#21325b"
       id="path8" />
    <path
       d="m 411.867,686.773 c -11.114,-57.371 30.099,-188.409 52.095,-246.757 7.332,3.47 68.687,-8.482 88.368,-37.014 15.744,-22.825 42.483,-31.789 55.567,-35.856 17.365,-5.398 46.307,-4.627 51.709,8.482 l 5.789,13.494 c 18.908,54.364 2.444,137.002 -9.262,173.887 l -43.219,7.711 c -32.723,-53.053 -15.95,-117.724 -3.473,-143.428 -13.275,17.89 -50.551,36.757 -67.53,43.954 -0.772,47.424 -73.319,210.9 -89.14,221.31 -12.657,8.328 -32.543,-0.385 -40.904,-5.783 z"
       fill="#21325b"
       id="path9" />
    <path
       d="m 417.2,690 -10.31,27.222 -0.883,2.334 c -0.981,2.356 -1.661,6.309 0,9.678 1.171,2.375 3.505,4.459 7.719,5.488 10.19,2.489 48.503,5.185 66.386,6.222 3.088,0.389 8.955,-1.088 7.72,-10.111 -1.235,-9.022 -7.72,-17.279 -15.053,-20.611 -5.949,-2.703 -21.288,-6.898 -38.597,-4.18 m -5.403,1.069 c 1.816,-0.436 3.62,-0.789 5.403,-1.069 m 5.404,-9.82 -5.404,9.82"
       stroke="#21325b"
       stroke-width="5"
       stroke-linecap="round"
       id="path10" />
    <path
       d="m 619.078,568.628 c -0.387,11.44 0.655,33.962 3.482,37.406 3.481,4.242 7.737,4.628 33.657,-3.47 20.737,-6.479 29.016,-6.556 34.045,-7.328 3.482,-0.533 7.738,-1.002 7.738,-9.64 0,-10.798 -4.256,-18.125 -17.409,-19.668 -10.523,-1.234 -25.534,5.142 -31.724,8.484 V 564"
       stroke="#21325b"
       stroke-width="5"
       stroke-linecap="round"
       id="path11" />
    <path
       d="m 661,257.097 c 0,-18.433 -17.979,-52.671 -38.969,-52.98 -20.989,-0.31 -29.58,-14.825 -31.252,-22.043 -1.543,-1.934 -7.022,-3.558 -16.591,5.414 m 10.032,-7.348 c -3.382,-0.717 -6.56,-2.32 -14.662,0.326 m -15.047,10.116 c 3.814,-5.811 10.031,-9.563 15.047,-10.116 m 0,0 c -39.74,4.017 -117.833,20.944 -112.277,56.522 0.852,3.021 3.299,7.841 7.861,12.375 m 19.533,10.441 c -8.783,-1.973 -15.139,-6.074 -19.533,-10.441 m 0,0 c 12.427,19.336 48.856,61.334 95.156,74.637"
       stroke="#21325b"
       stroke-width="5"
       stroke-linecap="round"
       id="path12" />
    <path
       d="m 560,324 c 2.83,-3.802 10.268,-10.674 19,-11"
       stroke="#21325b"
       stroke-width="5"
       stroke-linecap="round"
       id="path13" />
    <path
       d="m 579,313 c -0.257,-10.858 -9.418,-38.86 -44,-64"
       stroke="#21325b"
       stroke-width="5"
       stroke-linecap="round"
       id="path14" />
    <path
       d="m 525,258 c 3.59,-5.811 14.615,-18.147 30,-21"
       stroke="#21325b"
       stroke-width="5"
       stroke-linecap="round"
       id="path15" />
    <path
       d="m 611,247 c 1.667,1.97 5,7.327 5,13"
       stroke="#21325b"
       stroke-width="5"
       stroke-linecap="round"
       id="path16" />
    <path
       d="m 561,323.845 c 3.488,10.147 16.045,28.361 38.368,20.038 22.324,-8.324 23.254,-12.716 20.929,-13.872 m -9.689,0 c 7.88,-0.386 24.338,-1.542 27.129,-3.083 3.488,-1.927 4.263,-1.927 4.263,-5.78 0,-3.853 -31.392,2.697 -31.392,-9.633 2.842,-2.826 7.441,-9.171 3.1,-11.946 -4.341,-2.774 -13.435,5.266 -17.44,9.634 -4.134,4.367 -13.41,11.251 -17.44,3.853"
       stroke="#21325b"
       stroke-width="5"
       stroke-linecap="round"
       id="path17" />
    <path
       d="m 625,329.884 c 16.791,15.679 57.891,39.093 87.961,7.325 m 0,0 c 0.517,-5.525 3.565,-17.194 11.625,-19.661 1.291,-7.454 5.657,-20.896 12.787,-15.036 m -24.412,34.697 c 18.651,1.913 31.905,-3.095 40.299,-9.046 m -20.149,-11.387 c 1.679,-8.738 7.594,-25.599 17.824,-23.131 m -5.037,23.131 c 2.841,-4.497 8.292,-16.115 7.362,-26.601 0.129,-4.626 2.558,-12.954 11.237,-9.253 8.68,3.701 2.842,25.959 -1.162,36.626 -1.619,2.976 -4.936,6.972 -10.075,10.615 m 0,0 c 5.425,-1.482 17.282,-8.379 21.312,-24.109 4.03,-15.73 -1.421,-15.807 -4.65,-13.879"
       stroke="#21325b"
       stroke-width="5"
       stroke-linecap="round"
       id="path18" />
    <path
       d="m 622,332 c 0,7.278 -1.8,23.868 -9,32"
       stroke="#21325b"
       stroke-width="5"
       stroke-linecap="round"
       id="path19" />
    <path
       d="m 465,349 c -15.847,21.389 -38.033,69.734 0,92"
       stroke="#21325b"
       stroke-width="5"
       stroke-linecap="round"
       id="path20" />
    <path
       d="M 565.04,333.536 343.668,359 c -25.609,-20.516 -19.412,-51.142 -13.113,-63.891 l 153.881,-18.446 m 156.58,50.725 75.977,-7.302 m 55.536,-8.069 49.751,-3.459 66.72,-30.243 c -8.022,-8.515 -3.342,-16.071 0,-18.785 L 822.28,244 559.255,265.904"
       stroke="#21325b"
       stroke-width="5"
       stroke-linecap="round"
       id="path21" />
    <path
       d="m 939,257 9,-15"
       stroke="#21325b"
       stroke-width="5"
       stroke-linecap="round"
       id="path22" />
    <path
       d="M 943.399,264.841 960,264.069"
       stroke="#21325b"
       stroke-width="5"
       stroke-linecap="round"
       id="path23" />
    <path
       d="m 940,274 10,13"
       stroke="#21325b"
       stroke-width="5"
       stroke-linecap="round"
       id="path24" />
    <path
       d="m 915.312,229 v 14.5 m 0,45 V 459.023 M 947,428.919 H 767.694 V 643.89 M 800.927,613.4 H 579.885 v 160.939 m 33.234,-29.332 H 343 V 877"
       stroke="#21325b"
       stroke-width="15"
       stroke-linecap="round"
       id="path25" />
    <path
       d="M 153,789 305,659"
       stroke="#21325b"
       stroke-opacity="0.3"
       stroke-width="15"
       stroke-linecap="round"
       id="path26" />
    <path
       d="M 8,793 93,719"
       stroke="#21325b"
       stroke-opacity="0.3"
       stroke-width="15"
       stroke-linecap="round"
       id="path27" />
    <path
       d="M 165,608 340,472"
       stroke="#21325b"
       stroke-opacity="0.3"
       stroke-width="15"
       stroke-linecap="round"
       id="path28" />
    <path
       d="M 306.718,295.427 329.268,293 c -15.64,35.037 2.289,58.875 13.732,68.15 L 316.68,365 c -21.999,-26.793 -16.328,-56.775 -9.962,-69.573 z"
       fill="#21325b"
       id="path29" />
    <path
       d="m 891.621,279 c -8.369,-8.736 -3.487,-17.64 0,-21 L 923,265.342 Z"
       fill="#21325b"
       id="path30" />
    <path
       d="m 823,244 c -8.301,10.538 -19.922,38.092 0,64"
       stroke="#21325b"
       stroke-width="5"
       id="path31" />
  </g>
</svg>
