<?xml version="1.0" encoding="UTF-8" standalone="no"?>
<svg
   width="1000"
   height="900"
   viewBox="0 0 1000 900"
   fill="none"
   version="1.1"
   id="svg36"
   sodipodi:docname="oc-hi-five.svg"
   inkscape:version="1.3.2 (091e20e, 2023-11-25, custom)"
   xmlns:inkscape="http://www.inkscape.org/namespaces/inkscape"
   xmlns:sodipodi="http://sodipodi.sourceforge.net/DTD/sodipodi-0.dtd"
   xmlns="http://www.w3.org/2000/svg"
   xmlns:svg="http://www.w3.org/2000/svg">
  <defs
     id="defs36" />
  <sodipodi:namedview
     id="namedview36"
     pagecolor="#ffffff"
     bordercolor="#666666"
     borderopacity="1.0"
     inkscape:showpageshadow="2"
     inkscape:pageopacity="0.0"
     inkscape:pagecheckerboard="0"
     inkscape:deskcolor="#d1d1d1"
     inkscape:zoom="0.8108278"
     inkscape:cx="332.99302"
     inkscape:cy="423.64112"
     inkscape:window-width="1920"
     inkscape:window-height="1137"
     inkscape:window-x="-8"
     inkscape:window-y="-8"
     inkscape:window-maximized="1"
     inkscape:current-layer="svg36" />
  <g
     id="g36"
     transform="translate(83.00786,0.13332072)">
    <path
       d="m 483.15904,131.08195 c -1.8688,-6.6418 -2.8032,-19.01602 8.40957,-15.37164 m 0,0 12.33428,25.0508 m -12.33428,-25.0508 c -0.9344,-7.40218 3.9247,-19.358559 15.6988,-9.67963 l 5.60638,13.9487 m 5.60638,13.94938 -5.60638,-13.94938 m 0,0 c 0,-12.05086 2.80319,-32.167952 17.38048,-13.9487 8.96976,13.09465 12.33428,39.17169 5.60638,52.38067"
       stroke="#21325b"
       stroke-width="5.73954"
       stroke-linecap="round"
       id="path1" />
    <path
       d="m 371.81767,124.54805 c 18.17483,14.54056 46.71987,46.49029 15.49676,57.96937 6.1218,18.36654 7.4614,62.33142 -36.15911,91.25871 l -8.60931,27.5498 m -44.76843,-55.0996 c -2.10411,6.88745 -3.67331,29.27167 4.59163,47.6382 m -10.33117,5.16559 c 17.98428,-6.5052 52.22983,-14.46365 52.22983,8.03536 v 5.73954 c 30.99352,-25.82794 97.22783,-83.56773 114.21688,-107.90338"
       stroke="#21325b"
       stroke-width="5.73954"
       stroke-linecap="round"
       id="path2" />
    <path
       d="m 355.173,227.8598 c -0.57396,3.44373 0.91832,10.56076 11.47908,11.47908"
       stroke="#21325b"
       stroke-width="5.73954"
       stroke-linecap="round"
       id="path3" />
    <path
       d="m 386.16652,157.26344 c 0,6.43288 -1.90093,12.14028 -4.8304,16.16944 -2.93175,4.03145 -6.73937,6.21477 -10.66636,6.21477 -3.92699,0 -7.73461,-2.18332 -10.66636,-6.21477 -2.92947,-4.02916 -4.8304,-9.73656 -4.8304,-16.16944 0,-6.43288 1.90093,-12.14028 4.8304,-16.16944 2.93175,-4.03145 6.73937,-6.21477 10.66636,-6.21477 3.92699,0 7.73461,2.18332 10.66636,6.21477 2.92947,4.02916 4.8304,9.73656 4.8304,16.16944 z"
       stroke="#21325b"
       stroke-width="5.73954"
       stroke-linecap="round"
       id="path4" />
    <path
       d="m 319.01389,174.48206 35.58515,-11.47908"
       stroke="#21325b"
       stroke-width="5.73954"
       stroke-linecap="round"
       id="path5" />
    <path
       d="m 345.98973,150.94994 c 0.95621,-3.82597 4.47684,-12.62699 10.90513,-17.21862"
       stroke="#21325b"
       stroke-width="5.73954"
       stroke-linecap="round"
       id="path6" />
    <circle
       cx="372.39163"
       cy="156.68948"
       r="4.0176792"
       fill="#21325b"
       id="circle6"
       style="stroke-width:1.14791" />
    <path
       d="M 292.32846,298.76151 159.13895,455.03889 m 0,0 c -1.92963,5.74528 -3.84549,19.14482 12.36872,35.69192 m -12.36872,-35.69192 c 9.84447,-1.34075 35.44053,-0.68989 59.06677,12.63962 29.53339,16.66189 60.80356,45.96455 138.40102,71.81889 m 0,0 -26.05867,18.38604 m 26.05867,-18.38604 c -2.12364,-22.79058 -3.82139,-73.08274 6.36974,-91.92795 10.19228,-18.84521 22.0054,-48.45321 26.63836,-60.90227 21.61856,-16.47019 73.19637,-70.55504 106.55114,-155.12833"
       stroke="#21325b"
       stroke-width="5.73954"
       stroke-linecap="round"
       id="path7" />
    <path
       d="m 453.31916,211.21513 c -2.86977,0 -8.95369,-2.75498 -10.33118,-13.7749 -1.37749,-11.01992 -6.31349,-17.98428 -8.60931,-20.08839 -1.33961,-3.25203 -2.75498,-9.98681 2.29582,-10.90513 2.97423,-0.54067 6.49142,2.34058 9.42892,5.73954 m 4.91993,6.88745 c -1.10199,-1.88831 -2.86977,-4.51358 -4.91993,-6.88745 m 0,0 c -0.46491,-5.16559 -2.42668,-17.10384 -6.55915,-23.53212 -5.16559,-8.03536 -5.73954,-28.69771 5.16559,-26.40189 m 8.60931,35.0112 c 0.38225,-5.35729 0,-17.563 -4.59163,-23.53212 -5.73955,-7.4614 -6.88745,-21.81026 4.59163,-20.66235 3.64346,0.36446 5.96223,3.39207 7.38564,7.4614 m 1.79763,20.0884 c 0.46145,-5.30793 0.36618,-13.90232 -1.79763,-20.0884 m 0,0 c 3.66068,-2.10411 11.21047,-2.86977 12.1288,10.90513"
       stroke="#21325b"
       stroke-width="5.73954"
       stroke-linecap="round"
       id="path8" />
    <path
       d="m 479.72105,160.13321 c 1.33961,-2.48752 2.64019,-8.83889 -2.86977,-14.34885 -6.88745,-6.88745 -5.16559,-13.20095 -1.14791,-14.92281 4.01768,-1.72186 9.75722,-0.57396 15.49676,16.64467 5.73955,14.92281 14.23407,52.80378 4.59164,84.94521"
       stroke="#21325b"
       stroke-width="5.73954"
       stroke-linecap="round"
       id="path9" />
    <path
       d="m 254.73102,341.50273 c -21.42801,17.79257 -75.76195,55.32918 -121.67828,63.13495 -10.71343,4.39994 -29.15687,16.75946 -17.21863,30.99353 11.93825,14.23406 19.8967,31.56748 22.38422,38.45493 1.91356,6.31349 8.60931,13.88969 20.08839,-6.3135"
       stroke="#21325b"
       stroke-width="5.73954"
       stroke-linecap="round"
       id="path10" />
    <path
       d="m 123.86947,445.38843 c -8.99156,5.16559 -29.960406,15.0376 -41.898653,13.20094 -11.938246,-1.83665 -19.897039,3.06148 -22.384212,5.73955 -1.339264,2.10411 -2.181026,6.42828 5.165588,6.88745 7.346613,0.45916 16.070716,0.1917 19.514441,0 m 9.757221,-6.88745 c -4.017679,4.20938 -17.677788,13.7749 -40.176791,18.36653 -4.400277,0.76565 -10.331175,5.16559 -2.295817,10.33117 6.88745,4.01768 25.942728,0.34438 35.585158,-5.16558 -7.461404,3.63542 -20.891932,13.31573 -14.922808,22.95816 1.913218,1.91357 9.986802,2.06624 26.975845,-12.62699 m 0,0 12.626988,-10.33117 m -12.626988,10.33117 c -3.635081,9.37497 -9.183266,32.14143 5.739538,19.51444 10.90513,-10.90513 8.60932,-20.20318 13.20095,-22.95816 4.59163,-2.75498 14.92281,-13.39265 19.51444,-18.36654 m -25.82794,-7.4614 c -1.33926,4.97389 -2.4106,16.52988 4.01768,22.95817"
       stroke="#21325b"
       stroke-width="5.73954"
       stroke-linecap="round"
       id="path11" />
    <path
       d="m 189.8742,458.01542 c -7.2697,20.66235 -41.3247,63.13496 -71.74427,116.51269 -20.279752,33.48105 -68.644918,108.24776 -99.868024,139.47087 -4.209036,5.93124 -8.150138,19.39965 9.75722,25.82793 13.7749,5.73954 19.973605,19.05528 21.810258,33.28934 2.295817,17.79258 31.567479,30.99353 51.081916,17.79258 15.55416,-10.52173 60.27897,-86.31352 94.0665,-129.13968 m 23.02015,-24.68003 c -6.52241,5.00832 -14.41658,13.77605 -23.02015,24.68003 m 0,0 -38.39294,200.31 m 0,0 c 3.97635,6.12179 17.22321,17.67779 38.39294,14.92281 m -38.39294,-14.92281 c 19.51444,-5.16559 73.12176,-14.92281 106.18152,-14.92281"
       stroke="#21325b"
       stroke-width="5.73954"
       stroke-linecap="round"
       id="path12" />
    <path
       d="m 250.13939,855.1917 c 7.2697,-1.91356 21.92505,-11.59388 22.38421,-35.01121 0.45916,-23.41733 10.13947,-63.70891 14.92281,-80.92753 l 47.06424,-206.6235"
       stroke="#21325b"
       stroke-width="5.73954"
       stroke-linecap="round"
       id="path13" />
    <circle
       cx="350.58136"
       cy="193.42255"
       r="1.7218624"
       fill="#21325b"
       id="circle13"
       style="stroke-width:1.14791" />
    <circle
       cx="357.46881"
       cy="202.60582"
       r="1.7218624"
       fill="#21325b"
       id="circle14"
       style="stroke-width:1.14791" />
    <circle
       cx="340.25018"
       cy="206.04955"
       r="1.7218624"
       fill="#21325b"
       id="circle15"
       style="stroke-width:1.14791" />
    <path
       d="m 518.74993,176.20393 c -3.06147,6.69575 -6.31349,21.92505 5.16559,29.27166 m 9.18327,-39.02888 c 2.67807,-7.65311 10.79034,-22.84338 21.81026,-22.38422 11.01992,0.45917 2.29581,14.92281 0,20.0884 l -16.07072,31.56748 c -3.44373,8.60931 -8.60931,24.10607 3.44372,41.89865 12.05304,16.07072 57.51021,66.23431 122.25224,48.78611"
       stroke="#21325b"
       stroke-width="5.73954"
       stroke-linecap="round"
       id="path15" />
    <path
       d="m 596.8077,521.72433 45.34238,13.20095 m -2.29582,22.95816 c 4.97389,-16.26241 11.36429,-56.59188 -2.86977,-87.81498 -17.79258,-39.02889 -28.69771,-88.9629 -20.0884,-122.25224 6.88745,-26.63147 31.94974,-30.61127 43.62052,-29.27166 18.36653,2.10756 50.0488,24.10607 48.21215,83.79731 -2.29582,74.61404 -19.51444,138.32295 -44.19447,187.68301 m -32.14143,-48.21215 c 3.44372,12.24474 16.07071,40.63595 39.02888,56.2475"
       stroke="#21325b"
       stroke-width="5.73954"
       stroke-linecap="round"
       id="path16" />
    <path
       d="m 621.48773,584.85929 c 0,-29.27166 -0.1917,-49.93401 -3.44373,-57.96937 44.07968,16.52988 97.57221,12.24474 118.80851,8.03536 0.57396,1.33961 5.28038,14.11927 19.51445,54.52564 17.79257,50.50797 5.16558,219.25049 0,238.19098 -5.16559,18.94049 -18.94049,19.51444 -39.02889,17.21862 -16.07071,-1.83665 -37.30702,-45.91633 -45.91633,-67.72659 -40.17679,-75.18799 -49.93401,-157.92808 -49.93401,-192.27464 z"
       fill="#21325b"
       id="path17"
       style="stroke-width:1.14791" />
    <path
       d="m 707.0069,261.7231 c -4.20938,5.35729 -17.21863,15.84113 -35.58516,14.92281"
       stroke="#21325b"
       stroke-width="5.73954"
       stroke-linecap="round"
       id="path18" />
    <path
       d="m 750.62741,837.97307 c -7.80577,6.42829 -22.76646,8.03536 -29.27166,8.03536 4.01768,8.03536 1.14791,15.49676 -9.75722,17.79258 -9.47828,1.99507 -23.53212,3.06147 -29.27166,5.16559 -9.37497,2.67807 -25.59836,10.79034 -15.49676,21.81026 10.10159,11.01992 55.0996,4.59163 76.3359,0 21.2363,-6.88745 12.24474,-40.17679 7.4614,-52.80379 z"
       stroke="#21325b"
       stroke-width="5.73954"
       stroke-linecap="round"
       id="path19" />
    <path
       d="m 588.0262,95.046809 c 9.23263,11.876031 21.60823,15.742761 25.24136,12.987781 l 18.35735,-10.626419 c 5.35384,-3.345234 16.86507,-7.674571 20.07806,1.771108 4.01538,11.807041 2.86748,18.301101 12.04615,22.433571 7.34317,3.30598 8.03192,11.60995 7.45796,15.34868 v 12.39741 c -0.1917,3.54245 1.14676,9.56438 8.03077,5.31367 6.884,-4.2507 7.84021,-10.42989 7.45796,-12.98743 0.38225,-4.13247 4.13017,-11.80739 16.06268,-9.44614 11.93136,2.36125 10.70769,15.15239 8.60472,21.25237 l -6.88401,15.93986 c -2.86862,5.11623 -6.08047,16.76635 4.01539,22.43357 10.097,5.66722 13.76801,12.19997 14.34196,14.75866 18.81537,-14.64043 30.4035,-53.72211 33.84493,-71.43319 C 764.48382,63.876162 725.37343,45.916333 701.26736,33.863295 677.00631,21.733004 647.88962,24.106075 631.62491,29.271662 616.48055,1.8792866 572.53747,1.9678478 566.80138,0 c -4.13018,9.445644 -2.29467,37.782599 5.73609,63.167788 4.78104,11.80704 6.3112,20.07198 15.48873,31.879021 z"
       fill="#21325b"
       id="path20"
       style="stroke-width:1.14791" />
    <circle
       cx="660.5166"
       cy="178.49974"
       r="2.8697708"
       fill="#21325b"
       id="circle20"
       style="stroke-width:1.14791" />
    <circle
       cx="652.48126"
       cy="158.98531"
       r="2.8697708"
       fill="#21325b"
       id="circle21"
       style="stroke-width:1.14791" />
    <circle
       cx="642.15009"
       cy="175.05602"
       r="2.8697708"
       fill="#21325b"
       id="circle22"
       style="stroke-width:1.14791" />
    <ellipse
       cx="611.15656"
       cy="149.22809"
       rx="4.0176792"
       ry="5.7395415"
       fill="#21325b"
       id="ellipse22"
       style="stroke-width:1.14791" />
    <path
       d="m 604.84306,106.18152 c -2.67807,2.10446 -7.23183,8.03536 -4.01768,14.92281 v 24.68003 c 0.38225,2.67807 -1.83666,9.41284 -13.7749,14.9228 -11.93825,5.50996 -5.16559,16.07072 1.72186,17.21863 l 8.03536,1.14791 c 0.57395,25.25398 15.0376,76.90986 68.30054,81.50149 l 6.3135,16.64467"
       stroke="#21325b"
       stroke-width="5.73954"
       stroke-linecap="round"
       id="path22" />
    <path
       d="m 609.43469,136.02714 c 3.25202,-2.86977 11.36429,-6.54308 17.79258,1.72186"
       stroke="#21325b"
       stroke-width="5.73954"
       stroke-linecap="round"
       id="path23" />
    <path
       d="m 615.74819,209.49327 c 5.16558,1.53016 15.0376,0.11479 13.20094,-17.79258"
       stroke="#21325b"
       stroke-width="5.73954"
       stroke-linecap="round"
       id="path24" />
    <path
       d="m 505.94042,70.324652 9.00649,-16.372961"
       stroke="#21325b"
       stroke-width="6.88745"
       stroke-linecap="round"
       id="path25" />
    <path
       d="m 428.06518,78.057766 16.07071,10.331175"
       stroke="#21325b"
       stroke-width="6.88745"
       stroke-linecap="round"
       id="path26" />
    <path
       d="M 457.22434,36.451255 472.9461,72.600036"
       stroke="#21325b"
       stroke-width="6.88745"
       stroke-linecap="round"
       id="path27" />
    <path
       d="M 724.22552,200.31 C 714.66,211.98079 698.168,240.48679 708.72876,261.14914"
       stroke="#21325b"
       stroke-width="6.88745"
       stroke-linecap="round"
       id="path28" />
    <path
       d="m 699.54549,141.76668 c 0.1917,4.01768 -0.91832,12.28262 -6.88745,13.20094"
       stroke="#21325b"
       stroke-width="3.44372"
       stroke-linecap="round"
       id="path29" />
    <path
       d="m 782.05714,851.69632 c 13.35018,-1.71842 12.87265,-16.42083 11.44235,-22.34059 16.78357,9.1649 28.2902,1.14561 31.94629,-4.00965 8.58176,28.64146 3.17856,40.67039 -4.29203,48.68968 -6.51552,4.77415 -25.84171,13.51892 -51.01649,10.31051 -31.46876,-4.00964 -0.91603,-30.99811 11.91988,-32.64995 z"
       stroke="#21325b"
       stroke-width="5.73954"
       stroke-linecap="round"
       id="path30" />
    <path
       d="m 772.43767,482.12149 c -0.24565,-3.68478 6.55571,-30.49648 4.90042,-49.89383 m 0,0 c -0.92292,-10.81674 -2.10297,-24.3127 -3.58262,-40.75075 -4.13247,-45.91633 -20.4718,-81.11809 -28.12375,-92.98057 -7.80578,-34.89641 -28.88941,-38.64548 -38.45493,-36.15911 -10.56076,13.31573 -27.35925,15.88016 -34.43725,15.49676 1.83665,5.0508 -7.27085,13.20095 -12.05304,16.64467 l -25.42387,29.23149 c -13.31574,7.34661 -19.34455,23.95569 -19.34455,29.88579 -22.95817,65.66036 -22.55411,139.23898 -19.11038,168.12839 l 87.24103,17.21863 c 55.0996,6.88745 101.37638,-15.26489 117.83049,-26.93567 -5.96912,-30.30478 -18.8475,-65.81303 -24.54113,-79.77963 z"
       stroke="#21325b"
       stroke-width="5.73954"
       stroke-linecap="round"
       id="path31" />
    <path
       d="m 761.42005,789.70927 c 4.94748,-107.65084 -16.99478,-209.36585 -29.15917,-249.04445 30.67785,-4.14051 54.84362,-17.40114 63.70891,-21.81026 8.90662,33.58321 21.94112,119.80604 27.30071,159.29294 13.3605,43.24515 10.51484,105.42849 7.42237,131.11409 1.979,15.6414 -10.72031,21.85158 -17.31849,23.00179 -35.13059,11.50204 -49.27397,-23.57689 -51.95433,-42.55411 z"
       fill="#21325b"
       id="path32"
       style="stroke-width:1.14791" />
    <path
       d="m 171.50767,179.0737 c 28.00896,-52.34462 69.8307,-58.92558 87.24103,-55.67356 36.15911,-55.673549 86.09312,-74.040082 116.51269,-57.395412 24.33566,13.315737 4.39994,46.872882 -8.60931,61.987052 l -12.62699,-18.36654 c -8.7241,16.98905 -33.6716,10.71343 -45.91633,6.88745 10.52287,22.19252 27.32021,79.55005 -8.03536,131.43551 -35.35558,51.88545 -79.77963,52.80378 -102.16384,37.88097 C 177.24721,271.09806 143.4987,231.41832 171.50767,179.0737 Z"
       fill="#21325b"
       id="path33"
       style="stroke-width:1.14791" />
    <path
       d="m 12.871099,841.50519 c -27.32458,-54.61404 -1.994939,-90.95681 11.704302,-99.95642 21.236304,6.88745 21.810258,29.84562 25.253983,40.75075 l -7.948117,22.44046 c -5.318489,9.65047 -2.216037,28.53126 0,36.76521 9.186596,38.14384 -4.678874,41.81026 -11.483215,31.59503 z"
       fill="#21325b"
       id="path34"
       style="stroke-width:1.14791" />
    <path
       d="m 273.09755,892.49872 c -72.08864,9.64243 -87.04933,-18.17483 -85.51917,-34.43725 12.39741,-5.0508 46.49029,-6.88745 62.56101,-8.03536 -4.59164,10.56076 1.1479,9.18327 5.16558,12.05304 5.16559,3.44372 19.51445,7.6531 27.5498,8.03536 36.15912,1.72186 7.84366,19.89669 -9.75722,22.38421 z"
       fill="#21325b"
       id="path35"
       style="stroke-width:1.14791" />
    <path
       d="m 482.01687,129.13969 c 9.75722,15.68846 24.22086,53.72211 13.20094,107.90338 0.95621,11.67078 17.98773,50.26231 30.99353,67.72659 20.08839,26.97584 61.98705,57.39541 87.81498,66.00473"
       stroke="#21325b"
       stroke-width="5.73954"
       stroke-linecap="round"
       id="path36" />
  </g>
</svg>
