<?xml version="1.0" encoding="UTF-8" standalone="no"?>
<svg
   width="1292"
   height="1221"
   viewBox="0 0 1292 1221"
   fill="none"
   version="1.1"
   id="svg52"
   sodipodi:docname="signup.svg"
   inkscape:version="1.3.2 (091e20e, 2023-11-25, custom)"
   xmlns:inkscape="http://www.inkscape.org/namespaces/inkscape"
   xmlns:sodipodi="http://sodipodi.sourceforge.net/DTD/sodipodi-0.dtd"
   xmlns="http://www.w3.org/2000/svg"
   xmlns:svg="http://www.w3.org/2000/svg">
  <defs
     id="defs52" />
  <sodipodi:namedview
     id="namedview52"
     pagecolor="#ffffff"
     bordercolor="#666666"
     borderopacity="1.0"
     inkscape:showpageshadow="2"
     inkscape:pageopacity="0.0"
     inkscape:pagecheckerboard="0"
     inkscape:deskcolor="#d1d1d1"
     inkscape:zoom="0.73628174"
     inkscape:cx="646.49166"
     inkscape:cy="610.5"
     inkscape:window-width="1920"
     inkscape:window-height="1137"
     inkscape:window-x="-8"
     inkscape:window-y="-8"
     inkscape:window-maximized="1"
     inkscape:current-layer="svg52" />
  <path
     d="m 325.1902,105.5 c -62.4,-19.6 -104.67,21.5 -118,44.5 -34,-104.0001 39,-147.5 100.5,-132 64.5,13.5 94.167,-1.6667 108,-18 -4.167,43.3333 -28.1,125.1 -90.5,105.5 z"
     fill="#21325b"
     id="path1" />
  <path
     d="m 359.1902,105.5 c 13.167,41.667 22.2,130.6 -47,153 -29.5,7 -72,-9 -88,-50 l -13,-25.5"
     stroke="#21325b"
     stroke-width="5"
     stroke-linecap="round"
     id="path2" />
  <path
     d="m 211.1902,155.301 c -2.65,-5.001 -8.99,-11.771 -13.11,1.155 -4.12,12.926 7.02,23.082 13.11,26.544"
     stroke="#21325b"
     stroke-width="5"
     stroke-linecap="round"
     id="path3" />
  <path
     d="m 206.1902,160 c -1.5,1 -3.7,3.9 -0.5,7.5"
     stroke="#21325b"
     stroke-width="5"
     stroke-linecap="round"
     id="path4" />
  <path
     d="m 302.1902,206 c 0,3.175 0.846,5.934 2.082,7.824 1.25,1.913 2.69,2.676 3.918,2.676 1.228,0 2.668,-0.763 3.918,-2.676 1.236,-1.89 2.082,-4.649 2.082,-7.824 0,-3.175 -0.846,-5.934 -2.082,-7.824 -1.25,-1.913 -2.69,-2.676 -3.918,-2.676 -1.228,0 -2.668,0.763 -3.918,2.676 -1.236,1.89 -2.082,4.649 -2.082,7.824 z"
     stroke="#21325b"
     stroke-width="5"
     id="path5" />
  <path
     d="m 315.1902,231 c -2.833,3 -10.1,6.8 -16.5,-2"
     stroke="#21325b"
     stroke-width="5"
     stroke-linecap="round"
     id="path6" />
  <path
     d="m 307.6902,136 c 1,7 5.7,22.7 16.5,29.5"
     stroke="#21325b"
     stroke-width="5"
     stroke-linecap="round"
     id="path7" />
  <path
     d="m 308.6902,174.5 c 1.333,-3 8.3,-8.2 15.5,-9"
     stroke="#21325b"
     stroke-width="5"
     stroke-linecap="round"
     id="path8" />
  <path
     d="m 276.6902,123 c -5.33,-0.167 -16.9,2.1 -20.5,12.5"
     stroke="#21325b"
     stroke-width="5"
     stroke-linecap="round"
     id="path9" />
  <path
     d="m 353.1902,133 c -1,-4.5 -5.6,-13.4 -16,-13"
     stroke="#21325b"
     stroke-width="5"
     stroke-linecap="round"
     id="path10" />
  <ellipse
     cx="-335.69019"
     cy="137.5"
     rx="5"
     ry="6.5"
     fill="#21325b"
     id="ellipse10"
     transform="scale(-1,1)" />
  <ellipse
     cx="-271.69019"
     cy="146.5"
     rx="5"
     ry="5.5"
     fill="#21325b"
     id="ellipse11"
     transform="scale(-1,1)" />
  <path
     d="m 227.6902,253 c -49.17,16.833 -156.9,65.5 -194.5,125.5 -37.6,60 4.5,89.5 39.5,100.5 l 68,21"
     stroke="#21325b"
     stroke-width="5"
     stroke-linecap="round"
     id="path11" />
  <path
     d="m 320.6902,256 3.5,32.5 m -102.5,-83 11.5,71 m 107.5,10 c -20.5,5.667 -74.4,9.8 -126,-19"
     stroke="#21325b"
     stroke-width="5"
     stroke-linecap="round"
     id="path12" />
  <path
     d="m 904.1902,100 -84,69 m 57.5,9 -37.5,18 m 114,32.5 c -41.005,0 -63.995,0 -105,0 m 32,54 -41,-12.5 m 85.5,87 -105.5,-58"
     stroke="#21325b"
     stroke-width="5"
     stroke-linecap="round"
     id="path13" />
  <path
     d="m 688.1902,232 c 0,23.131 5.19,43.948 13.454,58.894 8.312,15.033 19.394,23.606 31.046,23.606 11.652,0 22.734,-8.573 31.046,-23.606 8.264,-14.946 13.454,-35.763 13.454,-58.894 0,-23.131 -5.19,-43.948 -13.454,-58.894 -8.312,-15.033 -19.394,-23.606 -31.046,-23.606 -11.652,0 -22.734,8.573 -31.046,23.606 -8.264,14.946 -13.454,35.763 -13.454,58.894 z"
     stroke="#21325b"
     stroke-width="5"
     id="path14" />
  <ellipse
     cx="-736.69019"
     cy="232"
     rx="8"
     ry="15"
     fill="#21325b"
     id="ellipse14"
     transform="scale(-1,1)" />
  <path
     d="m 549.6902,247 c -3.2,-9.6 -1.333,-23.667 0,-29.5 l -15.5,5.5 c -6.4,7.6 -2.667,15.167 0,18 z"
     fill="#21325b"
     id="path15" />
  <path
     d="m 534.1902,223 191.5,-72.5 m -6.5,160 -185,-69.5"
     stroke="#21325b"
     stroke-width="5"
     stroke-linecap="round"
     id="path16" />
  <path
     d="m 737.1902,220 -46,-14.5 m 46,38.5 -46,16.5"
     stroke="#21325b"
     stroke-width="5"
     stroke-linecap="round"
     id="path17" />
  <path
     d="m 632.1902,310 c 2.833,1.167 5.3,5.4 -1.5,9 -6.8,3.6 -5.167,8.5 -3.5,10.5 2.667,2.333 11.3,4.1 24.5,-7.5 13.2,-11.6 -8.5,-18.833 -21,-21 m 19,26 c 2.833,0.667 7.7,3.3 4.5,8.5 -3.2,5.2 -19.333,8.5 -27,9.5 -0.331,0.033 -0.666,0.05 -1,0.049 m 3,-13.549 c -1.667,0.333 -9,2.273 -9,8 0,4.053 2.974,5.537 6,5.549 m 25.5,-5.549 c 2.792,1.706 6.622,6.039 1.339,10.5 m -26.839,-4.951 c -4.4,6.038 0.167,9.15 3,9.951 0.695,0.103 1.541,0.193 2.5,0.255 M 653.0292,350 c -0.394,0.333 -0.839,0.667 -1.339,1 -6.088,4.058 -14.749,4.59 -20,4.255 M 653.0292,350 c 1.447,3.414 1.986,10.959 -6.339,15.535 -0.617,0.339 -1.282,0.661 -2,0.965 -10.4,4.4 -13,-2.833 -13,-7 v -4.245 m -28,-33.255 c 5.667,-4.5 16.7,-10.8 15.5,0 -1.2,10.8 -8.833,15.5 -12.5,16.5"
     stroke="#21325b"
     stroke-width="5"
     stroke-linecap="round"
     id="path18" />
  <path
     d="m 603.6902,365 c 3,-2.833 8.1,-12.1 4.5,-26.5"
     stroke="#21325b"
     stroke-width="5"
     stroke-linecap="round"
     id="path19" />
  <path
     d="m 600.6902,310.5 c -25.5,19.5 -56.7,60 -69.5,98 -7.833,20.833 -23.1,64.7 -21.5,73.5 m -75.5,39.5 37.5,29.5 c 32,22 59.833,19.5 74,9 44.4,-30 25.869,-116.906 31.563,-155.031 1.937,-12.969 6.253,-22.905 19.937,-24.469 5.167,-0.667 16.1,-2.9 18.5,-6.5"
     stroke="#21325b"
     stroke-width="5"
     stroke-linecap="round"
     id="path20" />
  <path
     d="m 628.1902,277 4,37 m -26.5,5 -10,-54.5 m 42,103.5 c 0,9.5 4.5,22 -5.5,25 -12.21,3.663 -13.5,-7.5 -16,-19 l -6.5,-34.5"
     stroke="#21325b"
     stroke-width="5"
     stroke-linecap="round"
     id="path21" />
  <path
     d="m 456.6902,426 c 10.333,8.333 35.4,31.3 53,56.5"
     stroke="#21325b"
     stroke-width="5"
     stroke-linecap="round"
     id="path22" />
  <path
     d="m 473.6902,437.5 c 0.333,-9 -0.8,-29.2 -8,-38 -9,-11 -39.5,125.5 -32,136 m 0,0 c 1.667,0.833 6.1,1 10.5,-5 m -10.5,5 c -15.5,-12.333 -48.7,-44.9 -57.5,-76.5"
     stroke="#21325b"
     stroke-width="5"
     stroke-linecap="round"
     id="path23" />
  <path
     d="m 344.0692,994.313 c 61.558,-166.462 56.477,-310.814 36.994,-355.791 C 314.1902,688 186.1902,647.5 142.8202,630 c -58.01,61.358 -7.89,389.64 24.42,546.11 12.43,20.46 39.21,9.95 51.05,2.14 l 14.8,-108.66 17.01,95.16 c 9.47,15.91 37.49,12.79 50.316,9.23 z"
     fill="#21325b"
     id="path24" />
  <path
     d="m 358.6202,418 c 20.184,32.248 50.794,117.903 21.57,218 -28,22.5 -88.5,44 -234.5,-6 -7.5,-6 -7.05,-2.519 -6.25,-34.853 1,-40.417 0.5,-130.71 11.01,-177.147"
     stroke="#21325b"
     stroke-width="5"
     stroke-linecap="round"
     id="path25" />
  <path
     d="m 466.1902,400 c -19.167,-31.5 -77,-102.5 -143,-130.5"
     stroke="#21325b"
     stroke-width="5"
     stroke-linecap="round"
     id="path26" />
  <path
     d="m 22.1902,441.5 c -16.67,20.333 -33.2,84.3 0,121.5 33.2,37.2 92.17,73.5 117.5,87 m 0,-97 -43.5,-47.5 c -2.83,-3.333 -7.5,-12.1 -3.5,-20.5"
     stroke="#21325b"
     stroke-width="5"
     stroke-linecap="round"
     id="path27" />
  <path
     d="m 534.1902,223 c -2.5,2.833 -6,10.4 0,18"
     stroke="#21325b"
     stroke-width="5"
     stroke-linecap="round"
     id="path28" />
  <path
     d="m 550.6902,217 c -1.833,5.833 -3.5,19 0,30"
     stroke="#21325b"
     stroke-width="5"
     stroke-linecap="round"
     id="path29" />
  <path
     d="m 327.4752,1187.39 c -11.924,0 -24.344,-8.98 -28.318,-13.47 -22.057,6.16 -38.507,1.29 -43.967,-1.92 v 19.88 c 13.71,14.37 56.636,17.32 75.265,10.9 11.179,-5.13 7.224,-15.39 -2.98,-15.39 z"
     stroke="#21325b"
     stroke-width="5"
     id="path30" />
  <path
     d="m 234.2202,1188.72 c -7.8,-1 -16.76,-6.23 -20.26,-8.72 -16.21,8.97 -33.27,6.23 -39.77,3.74 v 11.2 c 0,7.47 6,9.34 9.76,10.59 l 35.26,10.58 c 9.01,2.28 24.02,4.36 30.77,-5.6 7.58,-11.19 -6,-20.55 -15.76,-21.79 z"
     stroke="#21325b"
     stroke-width="5"
     id="path31" />
  <path
     d="m 1289.1902,581.5 -12,17 m -8.5,0 V 578 m -8.5,20.5 -12,-20.5"
     stroke="#21325b"
     stroke-width="5"
     stroke-linecap="round"
     id="path32" />
  <path
     d="m 943.3442,1051 56.533,-20.67 c 0.788,-0.29 1.313,-1.04 1.313,-1.88 v -54.195 c 0,-1.303 -1.225,-2.258 -2.488,-1.94 l -0.141,0.036 M 943.3442,1051 v -57.5 m 0,57.5 -35.643,-39.75 c -0.329,-0.36 -0.511,-0.84 -0.511,-1.33 v -51.449 m 36.154,35.029 55.217,-21.149 m -55.217,21.149 -36.154,-35.029 m 91.371,13.88 -35.215,-35.407 c -0.569,-0.572 -1.425,-0.746 -2.172,-0.442 l -53.984,21.969"
     stroke="#21325b"
     stroke-width="5"
     stroke-linecap="round"
     id="path33" />
  <path
     d="m 728.1902,1060.16 v 46.35 c 0,0.48 -0.174,0.95 -0.491,1.31 l -26.232,30.18 m 26.723,-77.84 -26.723,26.16 m 26.723,-26.16 -45.51,-7.27 c -0.623,-0.1 -1.257,0.1 -1.709,0.54 l -25.781,25.04 m 46.277,59.53 v -51.68 m 0,51.68 -44.652,-8.53 c -0.943,-0.18 -1.625,-1.01 -1.625,-1.97 v -49.03 m 46.277,7.85 -46.277,-7.85"
     stroke="#21325b"
     stroke-width="5"
     stroke-linecap="round"
     id="path34" />
  <path
     d="m 847.1902,789.5 -18,14 m -11.5,0 V 772 m -12,31.5 -13.5,-20.5"
     stroke="#21325b"
     stroke-width="5"
     stroke-linecap="round"
     id="path35" />
  <path
     d="m 628.1902,745 94,4"
     stroke="#21325b"
     stroke-width="5"
     stroke-linecap="round"
     id="path36" />
  <path
     d="m 627.1902,745 -124,11"
     stroke="#21325b"
     stroke-width="5"
     stroke-linecap="round"
     id="path37" />
  <path
     d="m 502.1902,756 25,116"
     stroke="#21325b"
     stroke-width="5"
     stroke-linecap="round"
     id="path38" />
  <path
     d="m 527.1902,872 103,18"
     stroke="#21325b"
     stroke-width="5"
     stroke-linecap="round"
     id="path39" />
  <path
     d="M 630.1902,889 V 766"
     stroke="#21325b"
     stroke-width="5"
     stroke-linecap="round"
     id="path40" />
  <path
     d="m 630.1902,767 -127,-10"
     stroke="#21325b"
     stroke-width="5"
     stroke-linecap="round"
     id="path41" />
  <path
     d="m 630.1902,767 92,-18"
     stroke="#21325b"
     stroke-width="5"
     stroke-linecap="round"
     id="path42" />
  <path
     d="m 724.1902,749 -6,92"
     stroke="#21325b"
     stroke-width="5"
     stroke-linecap="round"
     id="path43" />
  <path
     d="m 718.1902,841 -88,49"
     stroke="#21325b"
     stroke-width="5"
     stroke-linecap="round"
     id="path44" />
  <path
     d="m 629.1902,745 v 20"
     stroke="#21325b"
     stroke-width="5"
     stroke-linecap="round"
     id="path45" />
  <rect
     x="-631.93414"
     y="757.31476"
     width="37.243099"
     height="19.996"
     rx="8.5"
     transform="matrix(-0.99809275,-0.06173211,-0.06173211,0.99809275,0,0)"
     stroke="#21325b"
     stroke-width="3"
     id="rect45" />
  <path
     d="m 759.1902,612 c -17.629,28.048 -65.814,81.175 -117.526,69.296 l -72.474,-53.457"
     stroke="#21325b"
     stroke-width="5"
     stroke-linecap="round"
     id="path46" />
  <path
     d="m 759.1902,612 -82,-27"
     stroke="#21325b"
     stroke-width="5"
     stroke-linecap="round"
     id="path47" />
  <path
     d="m 677.1902,585 c -15.382,14 -58.516,42 -108,42"
     stroke="#21325b"
     stroke-width="5"
     stroke-linecap="round"
     id="path48" />
  <path
     d="m 713.1902,626 c -7.111,-1.667 -23.467,-7 -32,-15"
     stroke="#21325b"
     stroke-width="5"
     stroke-linecap="round"
     id="path49" />
  <path
     d="m 692.1902,644 c -4.444,-1 -14.667,-4.8 -20,-12"
     stroke="#21325b"
     stroke-width="5"
     stroke-linecap="round"
     id="path50" />
  <path
     d="m 668.1902,657 c -5.667,-1 -20.6,-5.6 -27,-20"
     stroke="#21325b"
     stroke-width="5"
     stroke-linecap="round"
     id="path51" />
  <path
     d="m 630.9092,916 89.781,-73.5 -90,50 -106,-18.5 -10,1.5 z"
     fill="#21325b"
     fill-opacity="0.3"
     id="path52" />
</svg>
