<?xml version="1.0" encoding="UTF-8"?>
<!DOCTYPE svg PUBLIC "-//W3C//DTD SVG 1.1//EN" "http://www.w3.org/Graphics/SVG/1.1/DTD/svg11.dtd">
<!-- Creator: CorelDRAW Home & Student 2018 -->
<svg xmlns="http://www.w3.org/2000/svg" xml:space="preserve" width="71.0213mm" height="86.6554mm" version="1.1" style="shape-rendering:geometricPrecision; text-rendering:geometricPrecision; image-rendering:optimizeQuality; fill-rule:evenodd; clip-rule:evenodd"
viewBox="0 0 1158.29 1413.27"
 xmlns:xlink="http://www.w3.org/1999/xlink">
 <defs>
  <style type="text/css">
   <![CDATA[
    .fil0 {fill:black}
   ]]>
  </style>
 </defs>
 <g id="Layer_x0020_1">
  <metadata id="CorelCorpID_0Corel-Layer"/>
  <g>
   <path class="fil0" d="M192.36 1323.57c-26.91,-95.29 -43.72,-207.41 -43.72,-313.92 0,-170.34 35.94,-327.1 95.81,-450.38 27.9,9.3 57.74,14.33 88.7,14.33 66.21,0 127.18,-23.02 175.37,-61.47l30.76 91.43 39.88 118.44 197.07 601.56 189.71 0c26.91,-95.29 43.73,-207.41 43.73,-313.92 0,-171.02 -36.25,-328.37 -96.56,-451.89 -29.17,10.26 -60.47,15.85 -93.07,15.85 -64.34,0 -123.79,-21.72 -171.33,-58.25l-29.68 88.21 -39.87 118.44 -197.08 601.56 -189.72 0zm140.78 -1236.45c112.7,0 204.61,91.92 204.61,204.61 0,112.7 -91.91,204.61 -204.61,204.61 -112.69,0 -204.61,-91.91 -204.61,-204.61 0,-112.69 91.91,-204.61 204.61,-204.61zm492.01 0c112.7,0 204.61,91.92 204.61,204.61 0,112.7 -91.91,204.61 -204.61,204.61 -112.69,0 -204.6,-91.91 -204.6,-204.61 0,-112.69 91.92,-204.61 204.6,-204.61zm-702.08 1326.15c-38.35,-121.08 -60.55,-265.71 -60.55,-403.61 0,-185.06 35.35,-356.77 95.36,-497.39 -64.92,-51.73 -106.64,-131.4 -106.64,-220.53 0,-67.91 24.23,-130.33 64.48,-179.08l-115.73 -112.65 1158.29 0 -118.6 115.46c38.89,48.33 62.23,109.65 62.23,176.27 0,87.37 -40.12,165.69 -102.86,217.47 60.81,141.18 96.71,314.04 96.71,500.46 0,137.91 -22.2,282.53 -60.54,403.61l-912.15 0zm525.91 -89.7l-33.68 -104.61 -34.27 -104.61 -34.27 104.61 -34.39 104.61 -60.66 0 129.32 -394.76 129.33 394.76 -61.38 0zm227.85 0l-51.25 0 0 -190.91 51.25 0 0 190.91zm-51.25 0l51.25 0 -51.25 0zm56.48 -347.23l61.53 156.32 -177.54 0 44.39 -112.75 17.15 -43.57 54.47 0zm-3.11 -188.59l115.77 188.59 -273.74 0 115.77 -188.59 42.19 0zm-22.61 -138.37l39.95 69.18 39.94 69.19 -159.79 0 39.94 -69.19 39.96 -69.18zm-538.28 9.44c36.32,-1.97 73.33,40.72 75.95,72.14 1.53,18.3 -19.36,32.66 -14.13,52.6 11.15,42.59 55.7,14.76 55.7,120.84 0,54.2 -38.48,31.21 -35.63,158.2 0.59,26.56 -54.39,94.58 -94.86,87.6 -56.44,-9.74 -114.75,-35.42 -123.27,-114.47 -6.78,-62.92 19.37,-48.48 20.86,-78.57 3.2,-64.58 -9.53,-12.55 -8.38,-73.24 2.13,-111.91 19.59,-84.28 38.38,-124.62 11.75,-25.25 2.25,-95.98 85.37,-100.48zm19.37 484.17l0 180.58 -48.29 0 0 -176.58c5.31,1.24 10.64,2.29 15.96,3.22 10.23,1.77 21.39,-1.27 32.33,-7.22zm467.24 -872.17c45.39,0 82.41,37.02 82.41,82.41 0,45.38 -37.01,82.41 -82.41,82.41 -45.38,0 -82.4,-37.03 -82.4,-82.41 0,-45.39 37.02,-82.41 82.4,-82.41zm-473.02 0c45.38,0 82.4,37.02 82.4,82.41 0,45.38 -37.02,82.41 -82.4,82.41 -45.39,0 -82.41,-37.03 -82.41,-82.41 0,-45.39 37.02,-82.41 82.41,-82.41z"/>
  </g>
 </g>
</svg>
