<?xml version="1.0" encoding="UTF-8" standalone="no"?>
<svg
   width="1000"
   height="900"
   viewBox="0 0 1000 900"
   fill="none"
   version="1.1"
   id="svg79"
   sodipodi:docname="oc-looking-for-answers.svg"
   inkscape:version="1.3.2 (091e20e, 2023-11-25, custom)"
   xmlns:inkscape="http://www.inkscape.org/namespaces/inkscape"
   xmlns:sodipodi="http://sodipodi.sourceforge.net/DTD/sodipodi-0.dtd"
   xmlns="http://www.w3.org/2000/svg"
   xmlns:svg="http://www.w3.org/2000/svg">
  <defs
     id="defs79" />
  <sodipodi:namedview
     id="namedview79"
     pagecolor="#ffffff"
     bordercolor="#666666"
     borderopacity="1.0"
     inkscape:showpageshadow="2"
     inkscape:pageopacity="0.0"
     inkscape:pagecheckerboard="0"
     inkscape:deskcolor="#d1d1d1"
     inkscape:zoom="0.8223661"
     inkscape:cx="351.42499"
     inkscape:cy="380.00107"
     inkscape:window-width="1920"
     inkscape:window-height="1137"
     inkscape:window-x="-8"
     inkscape:window-y="-8"
     inkscape:window-maximized="1"
     inkscape:current-layer="svg79" />
  <g
     id="g79"
     transform="matrix(0.98722352,0,0,0.98722352,48.554102,26.795948)">
    <path
       d="m 404.95684,402.54236 c 2.40542,-0.74038 8.76919,-1.44303 14.98532,1.66504"
       stroke="#21325b"
       stroke-width="5.55012"
       stroke-linecap="round"
       id="path1" />
    <ellipse
       cx="382.75638"
       cy="423.07782"
       rx="7.770165"
       ry="8.3251772"
       fill="#21325b"
       id="ellipse1"
       style="stroke-width:1.11002" />
    <ellipse
       cx="446.02771"
       cy="434.17804"
       rx="7.770165"
       ry="8.3251772"
       fill="#21325b"
       id="ellipse2"
       style="stroke-width:1.11002" />
    <path
       d="m 363.88597,409.75751 c 0.55501,-3.51544 3.99609,-10.21221 13.32028,-8.88018"
       stroke="#21325b"
       stroke-width="5.55012"
       stroke-linecap="round"
       id="path2" />
    <path
       d="m 434.92748,408.64749 c 4.4401,-3.88508 15.54033,-9.3242 24.42052,0"
       stroke="#21325b"
       stroke-width="5.55012"
       stroke-linecap="round"
       id="path3" />
    <path
       d="m 411.06197,418.08269 c 5.18048,8.51055 12.43227,26.75157 0,31.63567 l -6.10513,2.22005"
       stroke="#21325b"
       stroke-width="5.55012"
       stroke-linecap="round"
       id="path4" />
    <path
       d="m 389.97152,469.14378 c 1.2954,3.51544 6.21614,9.3242 15.54034,4.44009"
       stroke="#21325b"
       stroke-width="5.55012"
       stroke-linecap="round"
       id="path5" />
    <path
       d="m 211.25773,387.55704 c -18.20439,59.94128 32.37605,103.41757 59.94127,117.6625 24.86453,-15.09632 60.31091,-22.75548 75.4816,-24.97553 -18.8704,-15.54033 -24.60589,-44.0313 -26.08555,-57.16621 -9.99021,3.33007 -36.63078,-9.4352 -24.42052,-35.52076 9.76821,-20.86844 20.35006,-10.17558 24.42052,-2.22004 l 27.19558,12.21026 c 0,-25.30854 17.39074,-33.85572 26.08555,-34.96575 5.32812,-3.55207 11.10024,-15.17069 13.32029,-20.53543 2.66405,20.86844 29.97063,36.07576 43.29092,41.07087 17.31636,-13.76429 31.26603,-5.73549 36.07576,0 l 12.21026,-1.66504 c 23.86551,-8.1398 66.71242,-35.96476 47.17601,-82.14174 -19.53642,-46.17699 -59.94128,-37.74081 -77.70166,-27.75059 -60.82929,-40.40486 -121.91722,18.68502 -144.85808,53.28113 -23.12512,-4.07046 -73.92757,2.77506 -92.13195,62.71633 z"
       fill="#21325b"
       id="path6"
       style="stroke-width:1.11002" />
    <path
       d="m 347.23562,398.10227 -26.64057,-13.8753"
       stroke="#21325b"
       stroke-width="5.55012"
       stroke-linecap="round"
       id="path7" />
    <path
       d="m 404.40183,396.99224 c 0,19.14347 -13.08274,33.85572 -28.3056,33.85572 -15.22286,0 -28.3056,-14.71225 -28.3056,-33.85572 0,-19.14346 13.08274,-33.85572 28.3056,-33.85572 15.22286,0 28.3056,14.71226 28.3056,33.85572 z"
       stroke="#21325b"
       stroke-width="5.55012"
       id="path8" />
    <path
       d="m 477.66339,409.2025 c 0,19.14347 -13.08274,33.85572 -28.3056,33.85572 -15.22287,0 -28.3056,-14.71225 -28.3056,-33.85572 0,-19.14346 13.08273,-33.85572 28.3056,-33.85572 15.22286,0 28.3056,14.71226 28.3056,33.85572 z"
       stroke="#21325b"
       stroke-width="5.55012"
       id="path9" />
    <path
       d="m 478.77341,516.19213 c 42.62491,-34.18873 18.31539,-80.29134 0.55501,-99.34711 -9.7682,46.17698 -32.37605,66.0464 -42.18089,70.48649 l 15.54033,8.32518 z"
       fill="#21325b"
       id="path10"
       style="stroke-width:1.11002" />
    <path
       d="m 323.92512,396.99224 c -0.92465,-10.17558 -12.76527,-34.41073 -25.53054,-11.65524 -5.55012,10.35985 -9.54621,32.52369 18.8704,38.29581"
       stroke="#21325b"
       stroke-width="5.55012"
       stroke-linecap="round"
       id="path11" />
    <path
       d="m 314.48992,393.10716 c -2.58968,2.22005 -6.43814,7.99217 -1.11002,13.32028"
       stroke="#21325b"
       stroke-width="5.55012"
       stroke-linecap="round"
       id="path12" />
    <path
       d="m 320.04004,423.63281 c -0.36964,22.57011 8.43618,56.05619 48.84104,73.81657 40.40486,17.76038 76.40736,-13.68992 89.3569,-31.63567 7.21515,-9.99799 14.09841,-26.08556 17.20647,-43.84594"
       stroke="#21325b"
       stroke-width="5.55012"
       stroke-linecap="round"
       id="path13" />
    <path
       d="m 366.10602,498.00439 v 16.09534"
       stroke="#21325b"
       stroke-width="5.55012"
       stroke-linecap="round"
       id="path14" />
    <path
       d="m 345.01557,504.66453 c 7.58479,7.21516 30.08164,20.53544 59.38626,16.09534"
       stroke="#21325b"
       stroke-width="5.55012"
       stroke-linecap="round"
       id="path15" />
    <path
       d="M 399.96174,772.73523 387.75148,680.04826 C 434.37247,632.53925 509.29906,639.5324 540.93473,648.9676 l 23.86551,47.176 c 9.80484,17.02 36.85279,57.61023 66.60142,83.80679 0,4.9951 -19.09241,10.54522 -95.46203,-7.21516 C 459.57,754.97485 411.61699,799.00616 397.18668,823.24131"
       stroke="#21325b"
       stroke-width="5.55012"
       stroke-linecap="round"
       id="path16" />
    <path
       d="m 618.63639,786.61053 -7.77017,23.8655 -187.03898,24.97554 c -7.21515,6.10512 -24.64252,14.65231 -36.63077,0 -11.98826,-14.65232 -187.03898,-6.10513 -273.06581,0"
       stroke="#21325b"
       stroke-width="5.55012"
       stroke-linecap="round"
       id="path17" />
    <path
       d="M 412.72701,823.24131 C 379.79594,791.05062 281.74422,740.54455 152.98149,796.04573"
       stroke="#21325b"
       stroke-width="5.55012"
       stroke-linecap="round"
       id="path18" />
    <path
       d="m 176.84699,705.5788 -23.8655,89.91192"
       stroke="#21325b"
       stroke-width="5.55012"
       stroke-linecap="round"
       id="path19" />
    <path
       d="M 152.98149,685.59838 114.13066,835.45157"
       stroke="#21325b"
       stroke-width="5.55012"
       stroke-linecap="round"
       id="path20" />
    <path
       d="m 114.13066,835.32391 38.85083,-39.96085"
       stroke="#21325b"
       stroke-width="5.55012"
       stroke-linecap="round"
       id="path21" />
    <path
       d="M 387.19647,677.82821 C 371.52404,655.09493 316.72551,616.96562 222.91297,646.30798"
       stroke="#21325b"
       stroke-width="5.55012"
       stroke-linecap="round"
       id="path22" />
    <path
       d="m 434.92748,817.69119 c 6.47477,-9.06557 27.30658,-26.30756 58.83125,-22.75549"
       stroke="#21325b"
       stroke-width="5.55012"
       stroke-linecap="round"
       id="path23" />
    <path
       d="m 565.35525,693.36854 c 5.55012,-27.19557 -0.333,-96.90506 -68.26645,-158.17836 l -44.95595,-39.40584 -28.30561,-14.98531 -5.55011,-1.11003 -21.09045,4.99511 -2.22005,2.22004 -7.21515,13.32029 c -1.11003,2.77506 3.66308,5.99413 11.65525,3.33007 9.99021,-3.33007 2.77505,-7.77017 21.09044,-7.77017 m -10.93151,1.11003 c -7.77016,3.33007 -19.03912,15.31832 -14.59903,23.31049 0.55501,0.92465 2.22005,2.66406 4.4401,2.22005 0.97238,-0.19425 2.55749,-1.88704 4.80307,-3.88508 m 19.61744,-6.66014 c -9.0145,-1.80268 -15.45263,2.95377 -19.61744,6.66014 m 0,0 c -2.89605,6.2905 -5.24708,18.09338 8.51721,14.98532 m 0,0 c 3.1447,-3.88509 11.65525,-11.10024 20.53544,-8.88019 m -20.53544,8.88019 c -1.66504,3.51544 -2.44205,10.43422 7.77016,9.99021 12.76528,-0.55501 16.65036,-18.8704 31.63568,10.54522 11.98825,23.5325 12.76527,69.74612 11.65524,89.91191"
       stroke="#21325b"
       stroke-width="5.55012"
       stroke-linecap="round"
       stroke-linejoin="round"
       id="path24" />
    <path
       d="m 345.01557,482.46406 c -36.07577,4.80973 -122.1026,31.19166 -186.48397,109.33733 -64.381364,78.14566 24.97554,120.62293 77.70166,132.0928 16.09534,1.2954 47.73101,1.22103 45.51096,-9.4352 m -16.65035,-4.9951 c 6.2905,0 20.42443,1.44303 26.64057,7.21515 2.59634,2.07685 7.81456,4.05603 9.20431,-3.33007 m -22.5246,-12.76527 c 7.95554,-0.18538 23.64351,1.77604 22.75549,11.10023 -0.0566,0.60164 -0.13432,1.15554 -0.23089,1.66504 m -16.41947,-22.75548 c 5.91421,-0.43291 16.98003,0.95684 23.25278,8.32517 m -6.83331,14.43031 c 9.58395,3.99608 11.17794,-2.77506 10.77611,-6.66014 -0.78257,-3.13027 -2.17121,-5.68887 -3.9428,-7.77017 M 270.08898,585.14124 c -3.51434,2.58969 -10.98924,10.98924 -12.76528,23.86551 -1.77603,12.87627 -22.20047,20.1658 -32.19068,22.20047 -8.1398,2.22005 -17.31637,10.76723 11.10024,27.19558 4.44009,2.22005 13.32028,7.65916 28.86061,4.99511 21.64546,-3.71081 24.86453,3.33007 44.40094,21.09045 3.84624,3.41887 8.88685,11.09135 -1.72275,14.4303"
       stroke="#21325b"
       stroke-width="5.55012"
       stroke-linecap="round"
       stroke-linejoin="round"
       id="path25" />
    <path
       d="m 252.88361,617.88694 -14.43031,23.3105"
       stroke="#21325b"
       stroke-width="5.55012"
       stroke-linecap="round"
       stroke-linejoin="round"
       id="path26" />
    <path
       d="M -42.933071,701.52943 147.98638,693.36854"
       stroke="#21325b"
       stroke-width="5.55012"
       stroke-linecap="round"
       stroke-linejoin="round"
       id="path27"
       sodipodi:nodetypes="cc" />
    <path
       d="M 563.69022,692.13087 742.64933,681.58564"
       stroke="#21325b"
       stroke-width="5.55012"
       stroke-linecap="round"
       id="path28" />
    <path
       d="m 383.8664,48.444833 c -0.55502,-4.440094 4.48005,-16.873247 18.8704,-13.875295 12.76527,2.659395 15.54033,16.650354 6.66014,24.975531 -4.99511,5.202237 -11.76625,13.986297 -9.99021,23.310496"
       stroke="#21325b"
       stroke-width="5.55012"
       stroke-linecap="round"
       id="path29" />
    <path
       d="m 453.79788,49.554857 c 3.99609,-32.856699 -19.42541,-35.150785 -31.63567,-32.190685 -21.31245,-25.7525583 -39.96085,-10.7302427 -46.62099,0 -32.8567,-3.996085 -35.89039,19.795384 -33.30071,32.190685 -23.08849,18.648396 -9.61946,38.480744 0,46.065979 -4.8841,31.968684 20.53544,35.890394 33.85572,33.855724 19.09241,24.86452 38.66656,9.62057 46.06598,-1.11003 31.52467,3.99609 34.22647,-20.16546 31.63567,-32.745694 26.19656,-19.536415 10.91597,-38.850826 0,-46.065979 z"
       stroke="#21325b"
       stroke-width="5.55012"
       id="path30" />
    <circle
       cx="277.7854"
       cy="-304.32385"
       r="4.9951062"
       transform="rotate(61.4426)"
       fill="#21325b"
       id="circle30"
       style="stroke-width:1.11002" />
    <path
       opacity="0.4"
       d="m 611.45231,159.11974 c -0.4207,-3.33673 3.39668,-12.67869 14.30821,-10.42646 9.68051,1.99805 11.78401,12.51219 5.05061,18.76828 -3.78741,3.9084 -8.92237,10.50971 -7.57481,17.51618"
       stroke="#21325b"
       stroke-width="5.55012"
       stroke-linecap="round"
       id="path31" />
    <path
       opacity="0.4"
       d="m 664.81115,160.05105 c 3.03591,-24.78905 -14.76221,-26.51958 -24.03978,-24.28621 -16.19636,-19.42985 -30.36692,-8.09651 -35.42863,0 -24.96776,-3.01593 -27.27328,14.93426 -25.3052,24.28621 -17.54504,14.06954 -7.31062,29.03155 0,34.75372 -3.71081,24.11971 15.60582,27.07792 25.72701,25.54276 14.50912,18.7594 29.38233,7.25844 35.00682,-0.83696 23.95542,3.01482 26.00785,-15.21398 24.03978,-24.7058 19.90716,-14.73889 8.29409,-29.31017 0,-34.75372 z"
       stroke="#21325b"
       stroke-width="5.55012"
       id="path32" />
    <circle
       opacity="0.4"
       cx="471.29312"
       cy="-454.13773"
       r="3.7822723"
       transform="rotate(61.4426)"
       fill="#21325b"
       id="circle32"
       style="stroke-width:1.11002" />
    <path
       opacity="0.3"
       d="m 130.80321,191.57461 c -0.30081,-2.42652 2.42652,-9.22097 10.21999,-7.58258 6.91434,1.45303 8.41731,9.09998 3.60758,13.64997 -2.70513,2.84277 -6.37265,7.64251 -5.41026,12.73863"
       stroke="#21325b"
       stroke-width="5.55012"
       stroke-linecap="round"
       id="path33" />
    <path
       opacity="0.3"
       d="m 169.41872,192.52146 c 2.20561,-18.00459 -10.72172,-19.26224 -17.46068,-17.63939 -11.76292,-14.11173 -22.05616,-5.87979 -25.73145,0 -18.13557,-2.19008 -19.80948,10.84715 -18.37977,17.63939 -12.743074,10.21887 -5.31036,21.086 0,25.24304 -2.69625,17.51729 11.33445,19.66629 18.68613,18.55183 10.53746,13.62443 21.34021,5.2715 25.42509,-0.6083 17.39962,2.18897 18.89039,-11.05028 17.46068,-17.94353 14.45805,-10.70617 6.02409,-21.28914 0,-25.24304 z"
       stroke="#21325b"
       stroke-width="5.55012"
       id="path34" />
    <circle
       opacity="0.3"
       cx="259.63943"
       cy="-17.75709"
       r="2.7517042"
       transform="rotate(61.4426)"
       fill="#21325b"
       id="circle34"
       style="stroke-width:1.11002" />
    <path
       d="m 79.164917,856.96937 69.376473,-163.72848 -34.41073,142.08302 110.44735,-3.88508 55.50118,-1.66504 h 54.94617 l 28.3056,1.11003 24.42052,5.55012 z"
       fill="#21325b"
       fill-opacity="0.4"
       id="path35"
       style="stroke-width:1.11002" />
    <path
       d="m 420.49717,712.61746 c 9.80484,-16.65035 43.17992,-46.06598 98.23709,-30.52565"
       stroke="#21325b"
       stroke-width="5.55012"
       stroke-linecap="round"
       id="path36" />
    <path
       d="m 431.59741,750.55918 c 14.24493,-21.27471 59.60827,-56.05619 127.0977,-24.97553"
       stroke="#21325b"
       stroke-width="5.55012"
       stroke-linecap="round"
       id="path37" />
    <path
       d="M 377.20625,757.49017 C 348.16027,741.94984 273.97406,717.41832 209.59269,743.61487"
       stroke="#21325b"
       stroke-width="5.55012"
       stroke-linecap="round"
       id="path38" />
    <path
       d="m 364.99599,705.45115 c -9.62057,-5.55012 -33.63371,-14.98532 -52.72612,-8.32518"
       stroke="#21325b"
       stroke-width="5.55012"
       stroke-linecap="round"
       id="path39" />
    <path
       d="m 641.63719,497.32173 -53.28114,2.22004"
       stroke="#21325b"
       stroke-width="5.55012"
       stroke-linecap="round"
       id="path40" />
    <path
       d="m 642.1922,497.32173 69.93148,6.10513"
       stroke="#21325b"
       stroke-width="5.55012"
       stroke-linecap="round"
       id="path41" />
    <path
       d="m 712.6787,503.42686 -13.8753,66.0464"
       stroke="#21325b"
       stroke-width="5.55012"
       stroke-linecap="round"
       id="path42" />
    <path
       d="m 698.8034,569.47326 -58.27624,9.99021"
       stroke="#21325b"
       stroke-width="5.55012"
       stroke-linecap="round"
       id="path43" />
    <path
       d="M 640.52716,578.90846 V 509.53199"
       stroke="#21325b"
       stroke-width="5.55012"
       stroke-linecap="round"
       id="path44" />
    <path
       d="m 640.52716,510.087 71.59652,-6.10513"
       stroke="#21325b"
       stroke-width="5.55012"
       stroke-linecap="round"
       id="path45" />
    <path
       d="M 640.52716,510.087 588.35605,499.54177"
       stroke="#21325b"
       stroke-width="5.55012"
       stroke-linecap="round"
       id="path46" />
    <path
       d="m 587.24603,499.54177 3.33007,52.17111"
       stroke="#21325b"
       stroke-width="5.55012"
       stroke-linecap="round"
       id="path47" />
    <path
       d="m 590.5761,551.71288 49.95106,27.75059"
       stroke="#21325b"
       stroke-width="5.55012"
       stroke-linecap="round"
       id="path48" />
    <path
       d="m 641.08217,497.32173 v 11.65524"
       stroke="#21325b"
       stroke-width="5.55012"
       stroke-linecap="round"
       id="path49" />
    <rect
       x="633.49982"
       y="566.56006"
       width="19.439844"
       height="9.6813145"
       rx="4.8406572"
       transform="rotate(-3.53924)"
       stroke="#21325b"
       stroke-width="3.33007"
       id="rect49" />
    <path
       d="m 567.2656,422.39513 c 9.99022,15.72571 37.2968,45.51097 66.60142,38.85083 l 41.07087,-29.97064"
       stroke="#21325b"
       stroke-width="5.55012"
       stroke-linecap="round"
       id="path50" />
    <path
       d="m 567.2656,422.39513 46.621,-15.54033"
       stroke="#21325b"
       stroke-width="5.55012"
       stroke-linecap="round"
       id="path51" />
    <path
       d="m 613.8866,406.8548 c 8.69481,7.95554 33.0787,23.86551 61.05129,23.86551"
       stroke="#21325b"
       stroke-width="5.55012"
       stroke-linecap="round"
       id="path52" />
    <path
       d="m 593.35116,430.1653 c 4.06935,-0.92465 13.43128,-3.88508 18.31539,-8.32518"
       stroke="#21325b"
       stroke-width="5.55012"
       stroke-linecap="round"
       id="path53" />
    <path
       d="m 605.00641,440.15551 c 2.58968,-0.55501 8.54718,-2.66406 11.65524,-6.66014"
       stroke="#21325b"
       stroke-width="5.55012"
       stroke-linecap="round"
       id="path54" />
    <path
       d="m 618.8817,447.37066 c 3.1447,-0.55501 11.43324,-3.10806 14.98532,-11.10023"
       stroke="#21325b"
       stroke-width="5.55012"
       stroke-linecap="round"
       id="path55" />
    <path
       d="m 639.97215,596.11383 -52.72612,-43.29092 52.72612,29.41562 61.34656,-10.54522 h 8.58493 z"
       fill="#21325b"
       fill-opacity="0.3"
       id="path56"
       style="stroke-width:1.11002" />
    <path
       d="m 805.99172,630.52456 -27.19558,-21.09045 c -5.32811,-4.13151 2.58969,-6.16174 7.21515,-6.66014 L 887.57845,590.0087 c 12.76528,1.66503 40.95988,5.88312 51.6161,9.4352 10.65623,3.55207 7.40053,7.02978 4.4401,8.32517 -33.30071,6.10513 -103.1212,19.31442 -115.99747,23.3105 -12.87627,3.99609 -19.79505,1.2954 -21.64546,-0.55501 z"
       stroke="#21325b"
       stroke-width="5.55012"
       stroke-linecap="round"
       id="path57" />
    <path
       d="m 942.52462,600.55392 c 3.88509,1.2954 16.31735,12.98728 10.54523,40.51586 -2.22005,7.21516 -8.32518,11.65525 -28.30561,11.65525 h -103.7872 c -4.81084,0.36964 -15.87334,-0.33301 -21.64546,-6.10513 -5.77212,-5.77212 -17.57612,-17.94575 -22.75549,-23.3105 -1.11002,-1.29539 -2.22004,-3.88508 2.22005,-3.88508"
       stroke="#21325b"
       stroke-width="5.55012"
       stroke-linecap="round"
       id="path58" />
    <path
       d="m 778.79614,619.42432 v -9.4352"
       stroke="#21325b"
       stroke-width="5.55012"
       stroke-linecap="round"
       id="path59" />
    <path
       d="m 778.79614,622.75439 22.75549,17.76038 c 2.77505,2.22005 7.77016,6.10513 20.53543,5.55012 12.5466,-0.54502 80.29134,-1.85041 112.6674,-1.11002 4.81639,0.10989 11.10023,-2.22005 12.21026,-13.32029 1.43637,-14.36925 -1.11003,-23.31049 -6.66014,-23.31049"
       stroke="#21325b"
       stroke-width="5.55012"
       stroke-linecap="round"
       id="path60" />
    <path
       d="m 779.90617,628.85952 -21.09045,1.66504 c -2.96044,0 -8.76919,1.44303 -8.32518,7.21515 0.44401,5.77212 0.18426,9.06556 0,9.99021 -0.55501,2.77506 2.22005,4.99511 5.55012,7.77017 l 26.64056,23.31049"
       stroke="#21325b"
       stroke-width="5.55012"
       stroke-linecap="round"
       id="path61" />
    <path
       d="m 785.45628,652.17002 -2.77506,26.64056"
       stroke="#21325b"
       stroke-width="5.55012"
       stroke-linecap="round"
       id="path62" />
    <path
       d="M 785.45628,652.17002 755.48565,632.74461"
       stroke="#21325b"
       stroke-width="5.55012"
       stroke-linecap="round"
       id="path63" />
    <path
       d="m 784.90127,652.72503 18.8704,-2.22005"
       stroke="#21325b"
       stroke-width="5.55012"
       stroke-linecap="round"
       id="path64" />
    <path
       d="m 782.68122,678.81058 156.51333,3.33008"
       stroke="#21325b"
       stroke-width="5.55012"
       stroke-linecap="round"
       id="path65" />
    <path
       d="m 940.30458,651.61501 -1.11003,29.97063"
       stroke="#21325b"
       stroke-width="5.55012"
       stroke-linecap="round"
       id="path66" />
    <circle
       cx="803.77167"
       cy="667.15533"
       r="3.3300707"
       fill="#21325b"
       id="circle66"
       style="stroke-width:1.11002" />
    <circle
       cx="821.53204"
       cy="696.01599"
       r="3.3300707"
       fill="#21325b"
       id="circle67"
       style="stroke-width:1.11002" />
    <circle
       cx="922.54419"
       cy="666.04535"
       r="3.3300707"
       fill="#21325b"
       id="circle68"
       style="stroke-width:1.11002" />
    <circle
       cx="942.5246"
       cy="697.12598"
       r="3.3300707"
       fill="#21325b"
       id="circle69"
       style="stroke-width:1.11002" />
    <path
       d="m 767.14089,681.03063 27.19558,26.08556 c 3.88508,3.88508 13.8753,4.9951 36.07577,4.9951 20.54432,0 92.87123,-2.03467 126.54269,-1.66503"
       stroke="#21325b"
       stroke-width="5.55012"
       stroke-linecap="round"
       id="path69" />
    <path
       d="m 957.50994,682.14066 -0.55501,28.3056"
       stroke="#21325b"
       stroke-width="5.55012"
       stroke-linecap="round"
       id="path70" />
    <path
       d="m 957.50994,682.14066 -17.20536,-7.77017"
       stroke="#21325b"
       stroke-width="5.55012"
       stroke-linecap="round"
       id="path71" />
    <path
       d="m 770.47096,668.26536 c 0.18427,3.33007 -0.333,10.43422 -3.88508,12.21026"
       stroke="#21325b"
       stroke-width="5.55012"
       stroke-linecap="round"
       id="path72" />
    <path
       d="m 800.4416,680.47562 c 1.47966,1.66504 3.33007,6.66014 1.66504,14.43031 -1.30095,6.06739 -3.33007,11.65524 -7.77017,11.10023"
       stroke="#21325b"
       stroke-width="5.55012"
       stroke-linecap="round"
       id="path73" />
    <path
       d="M 957.50994,682.69567 936.9745,682.14066"
       stroke="#21325b"
       stroke-width="5.55012"
       stroke-linecap="round"
       id="path74" />
    <path
       d="m 781.5712,694.90593 -24.42052,13.87529"
       stroke="#21325b"
       stroke-width="5.55012"
       stroke-linecap="round"
       id="path75" />
    <path
       d="m 757.15068,708.78122 c -3.51544,6.84552 -8.99119,25.97455 -2.77506,49.95106"
       stroke="#21325b"
       stroke-width="5.55012"
       stroke-linecap="round"
       id="path76" />
    <path
       d="m 754.93063,758.73228 127.09771,8.32518 c 7.58479,0.18538 24.53152,-1.11002 31.63567,-7.77016 7.10415,-6.66015 20.53544,-21.27583 26.64057,-27.75059"
       stroke="#21325b"
       stroke-width="5.55012"
       stroke-linecap="round"
       id="path77" />
    <path
       d="M 940.30458,731.53671 V 714.88635"
       stroke="#21325b"
       stroke-width="5.55012"
       stroke-linecap="round"
       id="path78" />
    <path
       d="m 939.74956,714.33134 -32.19068,29.41563 c -1.2954,1.47966 -6.21613,3.99608 -15.54033,2.22004 -9.3242,-1.77604 -80.10707,-19.24004 -114.33243,-27.75059 -6.47477,-1.47966 -17.20537,-1.11002 -17.76038,12.76527 -0.74039,6.29051 0.33301,19.09241 10.54522,19.98043 10.21222,0.88802 80.47672,4.07046 114.33244,5.55012 9.24982,0.55501 27.19557,2.22004 46.06597,-14.98532"
       stroke="#21325b"
       stroke-width="5.55012"
       stroke-linecap="round"
       id="path79" />
  </g>
</svg>
