<?xml version="1.0" encoding="UTF-8" standalone="no"?>
<svg
   width="1000"
   height="900"
   viewBox="0 0 1000 900"
   fill="none"
   version="1.1"
   id="svg54"
   sodipodi:docname="oc-maintenance2.svg"
   inkscape:version="1.3.2 (091e20e, 2023-11-25, custom)"
   xmlns:inkscape="http://www.inkscape.org/namespaces/inkscape"
   xmlns:sodipodi="http://sodipodi.sourceforge.net/DTD/sodipodi-0.dtd"
   xmlns="http://www.w3.org/2000/svg"
   xmlns:svg="http://www.w3.org/2000/svg">
  <defs
     id="defs54" />
  <sodipodi:namedview
     id="namedview54"
     pagecolor="#ffffff"
     bordercolor="#666666"
     borderopacity="1.0"
     inkscape:showpageshadow="2"
     inkscape:pageopacity="0.0"
     inkscape:pagecheckerboard="0"
     inkscape:deskcolor="#d1d1d1"
     inkscape:zoom="0.85329658"
     inkscape:cx="493.38062"
     inkscape:cy="416.6195"
     inkscape:window-width="1920"
     inkscape:window-height="1137"
     inkscape:window-x="-8"
     inkscape:window-y="-8"
     inkscape:window-maximized="1"
     inkscape:current-layer="svg54" />
  <path
     d="m 284.4216,103.19804 c 8.4347,-10.683958 14.2926,-4.451559 16.16651,0 4.4985,7.31007 17.33752,18.97807 23.19542,23.89831 3.93619,19.11865 -17.57229,51.54585 -28.81856,65.36892 0,16.8694 24.83598,32.80114 37.25326,38.65904 v 11.24626 c -33.17648,-11.24626 -81.30066,48.26476 -101.21639,79.42675 -42.1735,-52.01398 -31.63012,-82.23831 -20.38386,-116.68 8.99702,-27.55335 52.95164,-79.42675 73.80362,-101.91928 z"
     fill="#21325b"
     id="path1"
     style="stroke-width:1.40578" />
  <path
     d="m 434.13751,140.45129 c -14.62015,13.49552 -53.41976,7.49704 -70.99205,2.81157 10.68395,20.80559 39.59669,33.0359 52.71687,36.55036 -1.68694,21.36791 -21.78964,40.76771 -31.63012,47.79663 v 11.24626 c 20.80559,-0.56231 41.93873,38.19092 49.9053,57.63712 37.67499,-72.53842 15.69838,-134.2523 0,-156.04194 z"
     fill="#21325b"
     id="path2"
     style="stroke-width:1.40578" />
  <path
     d="M 442.57221,102.49529 C 455.22426,65.94492 416.03383,-4.369346 353.30498,11.119264 296.37076,25.177067 286.06215,80.002752 287.93606,103.19818 289.623,94.763476 300.58811,91.951909 311.83437,97.575042 397.8683,148.74541 434.8404,122.17625 442.57221,102.49529 Z m 0,0 c 8.19993,5.85733 17.99402,21.78963 -8.4347,38.65903 -26.42872,16.86926 -81.77019,-0.46868 -106.13663,-11.24626 -8.21399,-4.68604 -26.04073,-17.71287 -31.63012,-32.333018"
     stroke="#21325b"
     stroke-width="7.02892"
     stroke-linecap="round"
     id="path3" />
  <path
     d="m 358.92811,11.119292 c 12.86151,14.376466 33.19757,56.433704 11.64832,109.651038"
     stroke="#21325b"
     stroke-width="7.02892"
     stroke-linecap="round"
     id="path4" />
  <path
     d="M 377.20329,9.7135088 C 389.20727,24.246017 408.18675,71.193131 388.07421,124.98768"
     stroke="#21325b"
     stroke-width="7.02892"
     stroke-linecap="round"
     id="path5" />
  <path
     d="m 293.55919,194.57394 c 22.02441,33.27068 79.56733,77.1775 122.30314,-13.35494"
     stroke="#21325b"
     stroke-width="7.02892"
     stroke-linecap="round"
     id="path6" />
  <circle
     cx="337.84137"
     cy="171.37851"
     r="4.2173495"
     fill="#21325b"
     id="circle6"
     style="stroke-width:1.40578" />
  <circle
     cx="382.82642"
     cy="175.59586"
     r="4.2173495"
     fill="#21325b"
     id="circle7"
     style="stroke-width:1.40578" />
  <path
     d="m 328.00088,161.53804 c 1.17102,-2.81157 5.90429,-8.01296 15.46361,-6.32602"
     stroke="#21325b"
     stroke-width="7.02892"
     stroke-linecap="round"
     id="path7" />
  <path
     d="m 372.98594,164.34961 c 0.23477,-2.10868 1.82752,-6.32603 6.32603,-6.32603"
     stroke="#21325b"
     stroke-width="7.02892"
     stroke-linecap="round"
     id="path8" />
  <path
     d="m 349.08763,214.18181 c 4.14284,0.90532 13.8807,1.76566 19.68096,-2.03558"
     stroke="#21325b"
     stroke-width="7.02892"
     stroke-linecap="round"
     id="path9" />
  <path
     d="m 361.03678,166.45828 c -1.17101,3.98258 -1.54636,13.49552 6.32603,19.68097 9.84048,7.7318 -2.81157,9.13759 -12.65205,8.43469"
     stroke="#21325b"
     stroke-width="7.02892"
     stroke-linecap="round"
     id="path10" />
  <path
     d="m 333.62401,231.89889 v 8.5795 c 11.24627,4.90337 36.83152,10.90888 49.20241,-4.28905 v -8.57949"
     stroke="#21325b"
     stroke-width="7.02892"
     stroke-linecap="round"
     id="path11" />
  <path
     d="m 332.92112,241.66768 c -24.60121,0.70289 -83.08179,27.13162 -120.19446,127.22338 -4.68548,13.58971 -5.06082,44.98506 30.92723,61.85446 m 7.73181,-30.92723 c -12.41729,69.3515 -34.30111,213.81962 -22.49254,236.87447 11.80858,23.05484 174.55189,4.92024 254.44676,-7.02892"
     stroke="#21325b"
     stroke-width="7.02892"
     stroke-linecap="round"
     id="path12" />
  <path
     d="m 479.12257,630.36673 c 11.24627,-1.40578 14.05783,-4.92024 6.32603,-18.27518 -9.76598,-16.86799 -32.33302,-83.6441 -26.00699,-139.17253 M 440.46353,315.4713 c -9.13759,-24.83597 -33.17648,-75.34998 -56.23132,-78.72386"
     stroke="#21325b"
     stroke-width="7.02892"
     stroke-linecap="round"
     id="path13" />
  <path
     d="m 273.17534,676.12638 c 9.55932,-2.81157 11.48103,-21.39321 10.54337,-26.78157 h 34.44169 c -0.56232,10.12163 -3.04633,36.55036 -4.21735,48.49951 -0.6804,6.94317 -17.57229,14.19842 -51.31109,17.57229 -33.7388,3.37388 -32.33301,-7.02891 -32.33301,-11.94915 0,-27.41277 43.81404,-32.09825 53.41976,-23.89832"
     stroke="#21325b"
     stroke-width="7.02892"
     stroke-linecap="round"
     id="path14" />
  <path
     d="m 446.08667,659.18529 c 2.80735,-1.46483 6.48347,-2.5262 10.54337,-3.1602 m 0,0 c 19.31827,-3.014 47.31304,3.67331 31.63012,22.84116 -15.18246,18.55634 -85.04988,23.10967 -85.04988,9.84048 l 2.10867,-47.79662 43.57928,-5.62314 c -2.24925,7.31008 4.21735,16.87081 7.73181,20.73812 z"
     stroke="#21325b"
     stroke-width="7.02892"
     stroke-linecap="round"
     id="path15" />
  <path
     d="m 290.04473,377.32576 c 6.74776,-0.56231 6.56079,3.51446 5.62314,5.62313 -2.5768,6.32603 -12.65205,18.8375 -32.33302,18.27518 -19.68096,-0.56231 -25.53886,-13.35494 -26.00699,-19.68096 4.92025,-32.33302 32.33302,-43.57928 34.44169,-43.57928 2.10868,0 23.19542,-7.02892 23.89832,0 0.56231,5.62313 -7.26369,7.02892 -11.24627,7.02892 -5.38837,0.93765 -15.10936,4.21734 -10.04854,12.65204 m -6.11797,28.81856 23.89832,-10.54337 c 3.74922,-0.93766 10.26222,-4.35793 6.32602,-10.54338 -3.93619,-6.18544 -18.50994,2.5768 -25.30409,7.73181 m 1.19772,-15.1192 c 8.20134,-4.31154 26.35563,-9.85032 24.10637,3.87293"
     stroke="#21325b"
     stroke-width="7.02892"
     stroke-linecap="round"
     id="path16" />
  <path
     d="m 303.39967,296.49323 -4.21735,14.05783"
     stroke="#21325b"
     stroke-width="7.02892"
     stroke-linecap="round"
     id="path17" />
  <path
     d="m 872.74186,288.67567 c 2.10868,2.34344 10.54338,4.16252 24.60121,0.78864 m -2.10868,0.46953 c 2.57681,3.04633 13.21437,5.43476 23.89832,-1.87531 10.68395,-7.31008 9.60572,-15.22885 7.73181,-18.27519 -0.31771,-0.59042 -0.78724,-1.20475 -1.40579,-1.74317 2.81157,-7.01626 -0.54403,-12.53958 -2.57258,-14.42333 m -14.96034,21.08675 c -2.82422,-3.04634 -6.08423,-9.98106 3.47509,-13.35494 5.1761,-1.82752 8.93797,-4.8359 11.48525,-7.73181 m 3.97837,-6.32603 c -0.53701,1.50419 -1.8233,3.87434 -3.97837,6.32603 m -55.06453,1.40578 c 3.37388,-8.4347 15.93174,-18.04041 21.78964,-21.78964 9.84048,-6.09126 32.05186,-16.44766 42.1735,-9.13759 3.74922,2.81157 7.31007,9.41875 -8.4347,13.35494 l -9.84048,2.10868 m -19.68097,13.35494 c 0.93766,5.62313 -0.42173,18.97807 -13.35494,27.41277 m 35.14458,-40.76771 c 4.21735,-1.17102 11.24627,0 11.24627,7.02891"
     stroke="#21325b"
     stroke-width="7.02892"
     stroke-linecap="round"
     id="path18" />
  <path
     d="m 925.45873,267.67467 c -3.51445,0.23477 -13.49552,3.79561 -25.30409,13.35494"
     stroke="#21325b"
     stroke-width="7.02892"
     stroke-linecap="round"
     id="path19" />
  <path
     d="m 881.17656,240.96479 c 2.10868,1.64055 8.57528,4.63908 17.57229,3.51446 11.24627,-1.40579 11.94916,6.32602 9.84049,9.84048 -1.68694,2.81157 -8.66947,2.10867 -11.94916,1.40578"
     stroke="#21325b"
     stroke-width="7.02892"
     stroke-linecap="round"
     id="path20" />
  <path
     d="m 603.53438,449.72359 c -7.50969,6.00832 -27.20471,15.39755 -49.9053,9.15868 m -4.21735,-11.97024 c -7.87238,3.37388 -3.74922,8.4347 -2.10867,9.84048 2.12976,0.8519 4.23984,1.5562 6.32602,2.12976 m 0,0 c 0,-6.80118 2.10868,-19.70205 10.54337,-16.89048 m 0,7.7318 c 2.34345,-7.26368 9.1376,-20.38385 17.57229,-14.76072 m -4.92024,11.94916 c 1.40579,-4.68548 6.18545,-12.51147 14.05784,-6.32603 m -2.81157,7.73181 c 3.04633,-4.45914 10.40279,-10.98198 15.46361,-1.40578"
     stroke="#21325b"
     stroke-width="7.02892"
     stroke-linecap="round"
     id="path21" />
  <path
     d="m 607.04884,671.13444 c 1.17102,2.10868 2.24925,8.4347 -2.81156,16.8694 m 6.32602,3.51446 c -12.65205,-3.98258 -52.71687,0 -42.1735,28.81856"
     stroke="#21325b"
     stroke-width="7.02892"
     stroke-linecap="round"
     id="path22" />
  <path
     d="m 643.5992,666.83134 c 5.62314,13.58971 9.41875,42.03292 -20.38385,47.09374 -29.80261,5.06082 -52.71687,12.65205 -54.82555,6.32602"
     stroke="#21325b"
     stroke-width="7.02892"
     stroke-linecap="round"
     id="path23" />
  <path
     d="m 701.23632,661.99685 c -3.04634,15.69838 -5.34198,47.65605 9.84048,49.90531 18.97807,2.81156 66.07181,8.4347 78.72386,-4.92024 12.65204,-13.35494 -21.08675,-30.92723 -42.87639,-21.08675 m -6.32603,-15.46362 c 4.45212,4.21735 8.4347,10.54338 3.51446,22.49253"
     stroke="#21325b"
     stroke-width="7.02892"
     stroke-linecap="round"
     id="path24" />
  <path
     d="m 760.27921,430.65977 c -8.4347,3.93619 -26.47512,6.79415 -34.44169,7.7318 l 2.81157,15.46362 c -2.24926,5.06082 -21.55488,2.10867 -30.92723,0 -65.22834,-14.62015 -88.56434,-7.96657 -92.0788,-2.81157 -27.41277,23.89832 -32.90939,124.30216 -31.63012,172.91133 1.40578,53.41977 34.44168,50.37343 54.12265,49.90531 37.95615,-3.51446 41.23584,-30.45911 45.68795,-44.28217 14.05783,43.86043 52.71687,48.73428 69.58627,44.28217 15.69838,-7.02892 37.01427,-21.80229 35.14458,-54.82555 -2.10867,-37.25325 -17.10416,-141.51597 -18.27518,-188.37494 z"
     fill="#21325b"
     id="path25"
     style="stroke-width:1.40578" />
  <path
     d="m 649.22234,295.70458 c -1.40579,1.87391 -3.79562,7.02892 -2.10868,12.65205"
     stroke="#21325b"
     stroke-width="7.02892"
     stroke-linecap="round"
     id="path26" />
  <path
     d="m 576.8245,303.43639 c 11.0115,-27.17801 33.7388,-65.36892 91.37591,-71.69494"
     stroke="#21325b"
     stroke-width="7.02892"
     stroke-linecap="round"
     id="path27" />
  <path
     d="m 730.75776,250.71952 c 2.81157,1.17102 15.46362,3.51446 17.57229,18.97807"
     stroke="#21325b"
     stroke-width="7.02892"
     stroke-linecap="round"
     id="path28" />
  <path
     d="m 858.68403,252.82819 c 11.0115,0.46813 28.39682,9.55933 9.84048,42.1735 -18.55633,32.61417 -82.23831,59.04289 -111.75976,68.18048"
     stroke="#21325b"
     stroke-width="7.02892"
     stroke-linecap="round"
     id="path29" />
  <path
     d="m 756.06186,363.43662 c 2.34344,16.16651 2.81157,52.29514 0,70.28916 m 108.9482,-180.19469 c -11.0115,-2.10868 -47.65605,-2.55712 -78.02097,14.31227 -9.13759,4.68689 -27.83451,13.24108 -37.95615,2.55712"
     stroke="#21325b"
     stroke-width="7.02892"
     stroke-linecap="round"
     id="path30" />
  <path
     d="m 648.17925,166.71273 c 14.95472,-8.17182 23.6284,5.24357 26.09555,12.97256 20.69313,-13.09908 26.59601,-63.04136 26.9587,-86.375113 26.24035,18.344633 55.92065,4.093641 67.48041,-5.324966 C 797.69272,64.374379 788.42439,42.121113 768.26125,29.292216 756.52858,21.828211 751.93167,13.56818 749.46733,7.3536908 744.71297,16.235204 741.2688,31.422259 727.39232,40.907078 720.5082,45.612797 698.339,47.793869 686.78908,51.45228 c -61.14876,19.367615 -51.2183,84.91015 -38.60983,115.26045 z"
     fill="#21325b"
     id="path31"
     style="stroke-width:1.40578" />
  <path
     d="m 648.4112,164.80508 c -3.77593,8.54154 -6.57344,29.7773 15.75883,34.98151 2.51776,8.16057 13.82869,25.65976 38.93176,30.36632 31.37989,5.88461 53.15688,1.37907 63.35162,-7.43659 10.19474,-8.81567 22.81445,-31.40801 22.59937,-51.94228"
     stroke="#21325b"
     stroke-width="7.02892"
     stroke-linecap="round"
     id="path32" />
  <path
     d="m 777.7067,170.11332 15.61123,-2.23098 c 2.60632,-2.53603 7.45486,-12.24156 -3.56366,-14.03534 -4.00368,-0.35004 -12.95149,-2.3083 -16.71758,-7.33819"
     stroke="#21325b"
     stroke-width="7.02892"
     stroke-linecap="round"
     id="path33" />
  <path
     d="m 768.39198,87.649088 c 2.00887,2.544327 5.8818,9.406939 5.29981,16.503612"
     stroke="#21325b"
     stroke-width="7.02892"
     stroke-linecap="round"
     id="path34" />
  <path
     d="m 718.78752,138.09857 c 0.81816,-2.13623 3.49196,-7.22179 7.63481,-10.4735"
     stroke="#21325b"
     stroke-width="7.02892"
     stroke-linecap="round"
     id="path35" />
  <ellipse
     cx="733.81238"
     cy="204.05519"
     rx="2.8115664"
     ry="4.2173495"
     transform="rotate(-4.51193)"
     fill="#21325b"
     id="ellipse35"
     style="stroke-width:1.40578" />
  <ellipse
     cx="773.17352"
     cy="185.78036"
     rx="2.8115664"
     ry="4.2173495"
     transform="rotate(-4.51193)"
     fill="#21325b"
     id="ellipse36"
     style="stroke-width:1.40578" />
  <path
     d="m 755.51923,147.8907 c 0.87018,11.03118 -5.94365,19.50664 -13.92288,20.13643 -7.97922,0.6298 -16.03858,-6.67184 -16.90876,-17.70302 -0.87018,-11.03006 5.94365,-19.50581 13.92288,-20.1356 7.97922,-0.62965 16.03858,6.67255 16.90876,17.70219 z"
     stroke="#21325b"
     stroke-width="7.02892"
     id="path36" />
  <path
     d="m 790.40795,125.3962 c 0.43439,5.50701 -0.86034,10.49051 -3.13911,14.08651 -2.27737,3.59501 -5.38696,5.62313 -8.68071,5.8832 -3.29516,0.26007 -6.68309,-1.25536 -9.49747,-4.44874 -2.81438,-3.19422 -4.87526,-7.91273 -5.30965,-13.41989 -0.43438,-5.50716 0.86175,-10.49052 3.13912,-14.08651 2.27877,-3.59501 5.38696,-5.62341 8.68212,-5.88334 3.29375,-0.25993 6.68168,1.25578 9.49606,4.44888 2.81438,3.19422 4.87526,7.91273 5.30964,13.41989 z"
     stroke="#21325b"
     stroke-width="7.02892"
     id="path37" />
  <path
     d="m 753.9335,136.73524 9.36814,-6.37986"
     stroke="#21325b"
     stroke-width="7.02892"
     stroke-linecap="round"
     id="path38" />
  <path
     d="m 761.42211,106.53129 c 0.86175,-2.06074 3.66347,-6.1967 7.96657,-6.25504"
     stroke="#21325b"
     stroke-width="7.02892"
     stroke-linecap="round"
     id="path39" />
  <path
     d="m 691.75431,152.9234 30.94129,-1.03184"
     stroke="#21325b"
     stroke-width="7.02892"
     stroke-linecap="round"
     id="path40" />
  <path
     d="m 661.17993,176.48854 c -1.95263,2.22536 -4.53084,7.30305 0.77459,9.80956"
     stroke="#21325b"
     stroke-width="7.02892"
     stroke-linecap="round"
     id="path41" />
  <path
     d="m 744.67502,198.10246 c 8.21539,-1.61806 25.70755,-6.61421 29.94599,-13.64453"
     stroke="#21325b"
     stroke-width="7.02892"
     stroke-linecap="round"
     id="path42" />
  <path
     d="m 744.64128,197.67932 c 8.15495,5.77777 25.56698,11.22096 29.97973,-13.22139"
     stroke="#21325b"
     stroke-width="7.02892"
     stroke-linecap="round"
     id="path43" />
  <path
     d="m 682.03332,221.37801 c -2.41233,3.75485 -5.24357,12.34981 2.73003,16.68946 7.97219,4.33825 21.43257,7.50829 27.16676,8.54997 6.10391,1.24412 18.14163,-1.08526 13.79776,-13.16234"
     stroke="#21325b"
     stroke-width="7.02892"
     stroke-linecap="round"
     id="path44" />
  <path
     d="m 278.79847,428.63684 c 44.0474,22.02441 158.43176,58.48059 263.58435,28.11567 m 63.96313,-7.02892 c 5.38837,-4.21735 26.85046,-10.12164 69.58627,0 42.73581,10.12164 53.18499,7.73181 52.01398,3.51446 -3.2797,-22.7273 -9.98106,-78.02097 -2.10868,-103.32506 7.87239,-25.3041 -33.27067,-33.03591 -54.82554,-33.7388 -49.20241,-9.37236 -164.47664,-22.49253 -231.95423,0 -84.34699,28.11566 -156.74482,-9.13759 -160.25928,-18.97807"
     stroke="#21325b"
     stroke-width="7.02892"
     stroke-linecap="round"
     id="path45" />
  <path
     d="m 278.79847,299.30479 c -0.93766,5.8579 -2.24926,20.66501 0,33.03591 m 0,67.47759 c -1.17102,5.38837 -2.81157,18.55634 0,28.11566"
     stroke="#21325b"
     stroke-width="7.02892"
     stroke-linecap="round"
     id="path46" />
  <path
     d="m 377.20329,328.12335 c -3.27969,32.80114 -6.88834,104.87142 4.92024,130.73783 M 491.77462,306.33371 c 5.15501,33.73879 7.73181,111.75976 7.73181,158.15061 M 608.45462,310.55106 c 0,32.33301 12.65205,91.3759 0,134.25229"
     stroke="#21325b"
     stroke-width="7.02892"
     stroke-linecap="round"
     id="path47" />
  <path
     d="m 123.53156,434.86063 13.35494,26.70988 m 8.4347,-8.4347 v -22.49253 m 14.05783,22.49253 12.65205,-18.27518"
     stroke="#21325b"
     stroke-width="7.02892"
     stroke-linecap="round"
     id="path48" />
  <path
     d="m 419.37679,867.15545 16.86939,23.89831 m 11.94916,0 V 862.2352 m 11.94916,28.81856 16.8694,-28.81856"
     stroke="#21325b"
     stroke-width="7.02892"
     stroke-linecap="round"
     id="path49" />
  <path
     d="m 915.17099,695.34811 25.30409,19.68096 m 16.16651,0 V 670.7469 m 16.8694,44.28217 18.97807,-28.81856"
     stroke="#21325b"
     stroke-width="7.02892"
     stroke-linecap="round"
     id="path50" />
  <path
     d="m 86.590688,769.1794 -25.30409,19.68096 m -16.16651,0 V 744.57819 M 28.250688,788.86036 9.2726186,760.0418"
     stroke="#21325b"
     stroke-width="7.02892"
     stroke-linecap="round"
     id="path51" />
  <path
     d="m 860.23353,528.46899 -16.86939,23.89831 m -11.94916,0 v -28.81856 m -11.94916,28.81856 -16.8694,-28.81856"
     stroke="#21325b"
     stroke-width="7.02892"
     stroke-linecap="round"
     id="path52" />
</svg>
