<?xml version="1.0" encoding="UTF-8"?>
<svg width="1200pt" height="1200pt" version="1.1" viewBox="0 0 1200 1200" xmlns="http://www.w3.org/2000/svg">
 <g>
  <path fill="#377dff" d="m600 828.69c-255.19 0-471.27-86.922-576.23-216.36v155.71c0 181.48 257.99 328.62 576.23 328.62s576.23-147.15 576.23-328.62v-155.68c-104.95 129.44-321.04 216.33-576.23 216.33z"/>
  <path fill="#377dff" d="m192.54 664.4c225.04 128.35 589.89 128.35 814.92 0 225.03-128.35 225.03-336.46 0-464.83-225.03-128.36-589.88-128.36-814.92 0-225.03 128.36-225.03 336.48 0 464.83zm280.4-371.56 61.84-35.266-31.668 119.15-208.88 18.055 61.828-35.266-145.61-83.055 116.88-66.668zm478.8 75.719-61.828-35.281-145.64 83.066-116.88-66.68 145.62-83.055-61.812-35.277 208.87 18.055zm-224.66 202.56-61.852 35.281 31.641-119.15 208.88-18.055-61.828 35.266 145.61 83.055-116.87 66.652zm-447.16 43.438-31.668-119.13 61.84 35.266 145.61-83.055 116.88 66.652-145.62 83.066 61.828 35.266z"/>
 </g>
</svg>
